<?xml version="1.0" encoding="utf-8"?>
<!-- Generator: Adobe Illustrator 23.0.4, SVG Export Plug-In . SVG Version: 6.00 Build 0)  -->
<svg version="1.1" id="Layer_1" xmlns="http://www.w3.org/2000/svg" xmlns:xlink="http://www.w3.org/1999/xlink" x="0px" y="0px"
	 viewBox="0 0 1280 1024" style="enable-background:new 0 0 1280 1024;" xml:space="preserve">
<style type="text/css">
	.st0{fill:#D00010;}
	.st1{opacity:0.8;}
	.st2{fill:#202020;}
	.st3{fill:none;stroke:#000000;stroke-width:2;stroke-miterlimit:10;}
</style>
<g>
	<path class="st0" d="M478.86,430.52c110.28-49.32,30.01,5.08,125.49-114.38s60.42,87.88,109.12,83.88
		c88.47-7.26,87.29,63.55,87.29,63.55c40.71,77.83,46.23,138.25-51.83,147.43c0.46,67.3-54.58,65.89-139.13,27.96
		c-60.89,79.04-103.16,58.09-130.94-40.67C409.15,553.69,419.27,496.13,478.86,430.52z"/>
	<g>
		<g>
			<g>
				<g class="st1">
					<g>
						<path class="st2" d="M479.24,459.67c-11.1,13.44-20.05,27.19-25.39,40.94c-2.69,6.86-4.34,13.68-4.82,20.22
							c-0.05,0.82-0.14,1.64-0.17,2.45l0.01,2.41l-0.01,1.2c0.01,0.4,0.06,0.79,0.09,1.18l0.18,2.36c0.06,0.79,0.24,1.55,0.35,2.32
							l0.18,1.16c0.05,0.39,0.12,0.77,0.23,1.15c0.4,1.51,0.65,3.05,1.22,4.51c1.42,4.64,3.5,9.08,6.14,13.38
							c2.62,4.31,5.98,8.4,9.65,12.36l1.4,1.48c0.46,0.5,0.92,0.99,1.44,1.46l3.01,2.86c1.01,0.95,2.12,1.84,3.18,2.77l1.6,1.39
							c0.54,0.46,1.12,0.89,1.68,1.33l3.38,2.66l0.21,0.17l0.44,0.3l0.9,0.62l1.8,1.25l3.58,2.49l3.57,2.48l0.89,0.62
							c0.13,0.35,0.21,0.75,0.32,1.12l0.61,2.26c0.82,3,1.64,5.99,2.45,8.99l1.24,4.65c0.4,1.5,0.82,2.99,1.26,4.48
							c0.85,2.99,1.76,5.95,2.69,8.9c1.88,5.9,3.98,11.71,6.32,17.39c2.36,5.66,5,11.18,8.02,16.29c3.02,5.09,6.45,9.83,10.23,13.51
							c3.73,3.67,7.53,6.12,11.25,7.19c1.87,0.55,3.77,0.83,5.78,0.81c2.01-0.04,4.15-0.36,6.38-0.97
							c4.47-1.23,9.26-3.67,13.96-6.81c4.7-3.19,9.33-7.07,13.84-11.38c3.63-3.27,7.21-6.83,10.73-10.59l1.32-1.43l0.33-0.36
							l0.55-0.62l1.14-1.33c1.51-1.79,3.03-3.54,4.52-5.36c2.93-3.61,5.89-7.24,8.86-10.9c4.41,1.97,8.83,4.05,13.23,6.06
							c2.2,1,4.42,2.03,6.59,2.97c1.6,0.71,3.2,1.43,4.8,2.14c5.2,2.27,10.45,4.5,15.79,6.57c10.66,4.11,21.62,7.84,32.71,10.3
							c2.78,0.67,5.54,1.13,8.32,1.65c1.38,0.19,2.76,0.39,4.15,0.58c1.39,0.21,2.75,0.27,4.12,0.42
							c5.47,0.45,10.87,0.41,15.85-0.38c4.98-0.79,9.47-2.36,13.14-4.76c3.65-2.42,6.47-5.79,8.63-10.02
							c0.32-0.55,0.75-1.2,1.09-2.07c0.35-0.86,0.85-1.75,1.21-2.82c0.34-1.08,0.73-2.19,1.07-3.34c0.25-1.2,0.5-2.4,0.74-3.55
							c0.13-0.56,0.15-1.17,0.22-1.73c0.02-0.28,0.05-0.56,0.07-0.83l0.03-0.4c0.02-0.23,0.05-0.46,0.07-0.69
							c0.18-1.85,0.18-3.52,0.07-4.95c-0.19-2.82-0.59-4.51-1.28-4.03c0.3-4.75,0.41-9.37,0.59-13.95c0.25-0.14,0.65-0.15,1.03-0.19
							l1.12-0.11l2.23-0.21l4.45-0.43l4.42-0.42c0.71-0.07,1.52-0.14,2.15-0.22l1.94-0.23c2.57-0.31,5.14-0.62,7.7-0.93l1.91-0.23
							l1.26-0.22l2.45-0.43c3.31-0.5,6.46-1.29,9.66-2.02c1.58-0.4,3.09-0.89,4.64-1.33c0.76-0.24,1.56-0.42,2.3-0.7l2.22-0.81
							c5.92-2.15,11.44-4.89,16.08-8.39c4.65-3.49,8.39-7.72,11.03-12.65c2.66-4.91,4.23-10.54,4.82-16.53
							c0.6-5.99,0.24-12.31-0.75-18.66c-0.99-6.35-2.57-12.74-4.65-19.05c-2.07-6.31-4.43-12.58-7.21-18.74
							c-1.95-4.58-3.97-9.21-6.03-13.87c-1-2.34-2.11-4.66-3.15-7.01c-0.52-1.17-1.06-2.34-1.61-3.51l-0.82-1.76l-1.28-2.65
							l-0.51-1.7l-0.25-0.85l-0.13-0.42c-0.03-0.14-0.04-0.29-0.06-0.43l-0.49-3.49c-0.05-1.44-0.07-1.84-0.12-2.59
							c-0.04-0.7-0.09-1.4-0.17-2.1c-0.14-1.41-0.33-2.82-0.58-4.23c-0.49-2.81-1.16-5.59-2.05-8.29
							c-1.81-5.37-4.34-10.46-7.77-14.72c-3.69-4.5-7.94-8.44-12.83-11.57c-4.88-3.15-10.29-5.59-16.03-7.4
							c-5.76-1.79-11.85-2.86-18.04-3.51l-4.67-0.39c-1.57-0.08-3.15-0.09-4.72-0.14l-2.37-0.06c-0.79-0.02-1.59,0.04-2.38,0.05
							l-5.08,0.16c-2.19,0.03-4.38,0.06-6.52-0.39c-0.54-0.07-1.06-0.21-1.58-0.37l-1.56-0.47c-1.01-0.39-2-0.84-2.96-1.33
							c-3.79-2.06-6.98-5.27-9.4-8.69c-4.43-6.37-6.75-12.84-8.92-19.19c-1.08-2.67-2.76-6.88-4.17-10.99
							c-1.43-4.12-2.62-8.13-3.03-10.42c-2.23-13.55-4.27-26.59-7.43-38.88c-1.59-6.11-3.46-12.03-5.88-17.26l-0.94-1.91
							c-0.32-0.62-0.67-1.2-1-1.8c-0.68-1.15-1.41-2.29-2.09-3.13c-0.35-0.51-0.65-0.8-0.96-1.15c-0.3-0.35-0.65-0.65-0.99-0.96
							c-0.68-0.61-1.45-1.1-2.24-1.52c-1.62-0.8-3.47-0.99-5.19-0.67c-0.43,0.08-0.86,0.15-1.27,0.31
							c-0.41,0.14-0.83,0.25-1.21,0.44l-0.58,0.26c-0.19,0.08-0.37,0.16-0.64,0.32c-0.49,0.27-0.97,0.53-1.46,0.78
							c-4.23,2.52-8.57,6.29-12.62,10.44c-4.07,4.18-7.96,8.79-11.74,13.54l-2.81,3.6l-2.76,3.68l-1.38,1.84l-1.39,1.91l-2.8,3.82
							c-3,3.95-5.75,7.73-8.4,11.39c-2.68,3.64-5.15,7.21-7.66,10.73c-4.95,7.06-9.84,14.02-15.04,21.73
							c0.01,1.02-0.61,2.44-1.56,4.18c-0.47,0.87-1.03,1.82-1.62,2.84c-0.57,1.02-1.18,2.12-1.78,3.28
							c-0.92,1.47-2.35,3.78-4.17,6.71c-0.89,1.47-1.88,3.09-2.93,4.87c-1.08,1.85-2.23,3.83-3.45,5.92
							c-0.35,0.59-0.7,1.18-1.06,1.79c-0.2,0.32-0.33,0.56-0.58,0.96c-0.23,0.37-0.47,0.74-0.71,1.11
							c-0.25,0.38-0.49,0.75-0.74,1.13c-0.32,0.44-0.65,0.89-0.97,1.34c-0.64,0.9-1.37,1.75-2.13,2.58
							c-0.72,0.86-1.6,1.59-2.43,2.36c-0.87,0.73-1.81,1.41-2.75,2.07c-0.96,0.6-2.01,1.25-2.96,1.75c-0.91,0.46-1.9,0.95-2.77,1.35
							c-0.78,0.33-1.56,0.65-2.35,0.98c-0.77,0.31-1.47,0.56-2.21,0.85c-1.5,0.58-2.83,1.02-4.26,1.54
							c-2.72,0.94-5.46,1.88-8.19,2.82c-21.49,7.32-41.9,15.3-45.6,16.08c-0.91,0.23,7.61-3.87,20.98-9.74
							c6.69-2.94,14.58-6.27,23.18-9.72c4.32-1.75,8.75-3.45,13.6-5.53c0.59-0.24,1.26-0.57,1.88-0.85c0.64-0.3,1.25-0.57,2.01-0.98
							c0.74-0.4,1.43-0.72,2.2-1.21c0.75-0.49,1.54-0.94,2.25-1.49c1.44-1.07,2.79-2.28,3.94-3.67c0.59-0.68,1.15-1.39,1.65-2.14
							l0.76-1.12c0.23-0.35,0.41-0.67,0.61-1.01c1.61-2.69,2.66-4.82,3.84-7.02c1.15-2.18,2.28-4.29,3.45-6.37
							c2.3-4.17,4.74-8.2,7.13-12.09c4.82-7.77,9.66-14.87,13.84-20.89c4.16-6.03,7.74-10.95,10.09-14.36
							c2.41-3.38,3.64-5.24,3.29-5.07c-0.36,0.31-1.63,1.84-3.59,4.31c-1.92,2.49-4.54,5.91-7.57,10
							c-6.05,8.17-13.68,19.06-20.62,30.42l-2.55,4.28c-0.82,1.44-1.64,2.88-2.45,4.31c-1.61,2.89-3.11,5.75-4.74,8.73
							c-0.43,0.77-0.8,1.47-1.32,2.32l-0.74,1.22c-0.26,0.42-0.6,0.88-0.89,1.31c-0.59,0.89-1.3,1.68-1.97,2.49
							c-0.35,0.39-0.74,0.74-1.11,1.1c-0.37,0.36-0.75,0.72-1.16,1.02c-0.41,0.31-0.81,0.63-1.22,0.94
							c-0.41,0.29-0.85,0.55-1.27,0.83c-0.87,0.57-1.68,0.99-2.48,1.4c-0.39,0.2-0.83,0.44-1.18,0.6c-0.36,0.16-0.72,0.33-1.07,0.49
							c-0.71,0.33-1.42,0.65-2.07,0.91c-5.32,2.21-9.69,3.84-13.13,5.19c-3.41,1.33-5.83,2.25-6.9,2.63
							c5.49-2.38,10.85-4.71,16.09-6.98c2.69-1.19,5.28-2.3,8.25-3.96c0.37-0.21,0.73-0.4,1.11-0.64l1.13-0.74
							c0.76-0.47,1.44-1.06,2.13-1.62c0.69-0.56,1.27-1.24,1.9-1.86c0.55-0.69,1.13-1.36,1.61-2.08c2.02-2.99,3.12-5.45,4.33-7.83
							c1.18-2.39,2.33-4.68,3.49-6.95c2.33-4.52,4.78-8.84,7.21-13.04c4.91-8.38,9.94-16.16,14.83-23.46
							c4.87-7.31,9.65-14.1,14.2-20.48c2.25-3.21,4.52-6.25,6.69-9.24c1.09-1.49,2.15-2.96,3.21-4.4c1.07-1.42,2.12-2.82,3.16-4.19
							c4.19-5.46,8.25-10.46,12.29-14.89c4.05-4.42,8.05-8.32,12.08-11.54c4.04-3.22,8.1-5.78,12.33-7.27
							c4.22-1.42,8.6-1.53,12.09-0.12c3.51,1.36,6.13,3.68,8.12,5.96c1.98,2.3,3.4,4.46,4.49,6.37c0.58,0.95,1.05,1.85,1.47,2.67
							c0.44,0.82,0.82,1.57,1.13,2.26c0.67,1.36,1.15,2.44,1.51,3.24c0.36,0.8,0.62,1.3,0.74,1.55c0.25,0.49,0.12-0.11-0.43-1.63
							c-0.54-1.52-1.5-3.97-3.06-7.12c-0.42-0.78-0.86-1.6-1.33-2.47c-0.52-0.85-1.06-1.75-1.67-2.67
							c-1.27-1.82-2.85-3.87-4.87-5.68c-2.04-1.77-4.54-3.34-7.47-4.13c-2.92-0.81-6.2-0.76-9.41,0.05c-0.8,0.2-1.62,0.39-2.4,0.72
							c-0.78,0.31-1.61,0.56-2.35,0.93c-0.75,0.37-1.5,0.73-2.26,1.11c-0.74,0.4-1.44,0.85-2.17,1.27
							c-0.74,0.41-1.43,0.89-2.13,1.38c-0.69,0.49-1.41,0.96-2.09,1.48c-1.33,1.08-2.75,2.09-4.04,3.28
							c-10.58,9.22-20.04,21.3-29.1,33.77c-9.13,12.45-18.07,25.27-25.88,37.53c-5.25,7.38-11.07,16.72-17.03,28.3
							c-1.48,2.94-3.01,6-4.61,9.18c-0.81,1.6-1.78,3.37-3.05,5.18c-1.27,1.77-2.91,3.31-4.79,4.58c-1.91,1.32-3.87,2.21-5.74,3.11
							c-1.88,0.85-3.78,1.66-5.7,2.45c-3.82,1.54-7.77,3.13-11.86,4.77c4.76-2.2,10.73-4.87,17.23-8.19
							c3.15-1.69,7.06-3.86,9.28-7.3c1.17-1.68,2.05-3.47,2.81-5.17c0.79-1.71,1.5-3.4,2.24-5.07
							c5.78-13.36,12.29-24.98,15.04-29.19c1.51-2.49,2.99-4.75,4.34-6.89c1.34-2.14,2.61-4.1,3.8-5.93
							c1.18-1.84,2.28-3.55,3.31-5.15c1.05-1.59,2.02-3.08,2.94-4.48c3.65-5.65,6.52-9.91,9.52-14.35c1.51-2.21,3.1-4.42,4.85-6.85
							c1.76-2.43,3.68-5.06,6.06-8.06c1.16-1.51,2.43-3.09,3.85-4.77c0.7-0.84,1.43-1.71,2.19-2.61c0.78-0.88,1.6-1.8,2.44-2.75
							c3.39-3.79,7.4-8.04,12.63-12.59c1.06-0.94,2.23-1.85,3.37-2.81c1.14-0.96,2.43-1.85,3.68-2.8c2.63-1.82,5.34-3.65,8.73-5.17
							l1.25-0.58c0.45-0.18,0.93-0.35,1.41-0.52c0.95-0.33,1.9-0.71,2.9-0.91c1.97-0.51,4.03-0.82,6.11-0.81
							c4.17-0.02,8.44,1.27,12,3.82c3.55,2.48,6.58,6.24,8.64,9.57c2.12,3.38,3.77,6.89,5.23,10.41c1.46,3.53,2.68,7.09,3.81,10.65
							c1.12,3.56,2.14,7.13,3.08,10.67c3.76,14.16,6.66,28.04,10.02,40.14c1.67,6.04,3.43,11.63,5.36,16.43
							c0.96,2.41,1.98,4.57,2.99,6.51c0.54,0.9,1.02,1.87,1.56,2.63c0.26,0.39,0.51,0.81,0.77,1.16c0.25,0.33,0.49,0.65,0.74,0.97
							c-2.39-2.27-5.6-7.12-8.4-13.49c-2.85-6.36-5.51-14.13-7.94-22.34c-4.88-16.45-9.01-34.51-13.42-48.36
							c1.93,6.59,3.22,12.58,4.46,18.06c1.22,5.48,2.29,10.47,3.37,15.09c2.14,9.24,4.26,17.04,6.69,24.37
							c1.22,3.66,2.5,7.2,3.92,10.7c1.42,3.49,2.98,6.96,4.82,10.28c0.94,1.64,1.9,3.29,3,4.77c0.27,0.37,0.54,0.74,0.82,1.12
							c0.28,0.33,0.56,0.67,0.85,1c0.26,0.34,0.51,0.56,0.78,0.83c0.27,0.25,0.51,0.53,0.8,0.75c1.1,0.98,2.4,1.8,3.88,2.27
							c1.47,0.52,3.11,0.52,4.75,0.33l0.1-0.02l0.22-0.02l0.68-0.05c0.45-0.04,0.91-0.07,1.37-0.11c0.92-0.07,1.85-0.14,2.8-0.21
							c1.89-0.18,3.86-0.16,5.89-0.19c2.03-0.02,4.11-0.07,6.28,0.09c1.08,0.06,2.18,0.12,3.29,0.19c1.11,0.06,2.24,0.13,3.4,0.3
							c1.6,0.16,3.27,0.34,5,0.51c1.73,0.2,3.52,0.52,5.36,0.78c1.85,0.22,3.74,0.68,5.68,1.07c0.97,0.21,1.96,0.38,2.95,0.64
							c0.99,0.27,1.99,0.55,2.99,0.82c0.93,0.36,1.87,0.66,2.78,1.06l2.72,1.23c0.9,0.43,1.82,0.79,2.71,1.28
							c0.89,0.48,1.78,0.97,2.68,1.46c3.61,1.97,7.19,4.43,10.9,7.49c8.22,6.49,14.67,14.81,19.06,23.74
							c2.21,4.47,3.92,9.1,5.2,13.79c0.64,2.35,1.19,4.71,1.61,7.09c0.22,1.19,0.4,2.39,0.57,3.6c0.07,0.61,0.16,1.2,0.22,1.82
							l0.14,1.37c0.04,0.46,0.08,0.93,0.09,1.38c0.01,0.06,0,0.12,0.01,0.17l0.08,0.15l0.17,0.31l0.33,0.61
							c0.79,1.47,1.57,2.95,2.36,4.42c0.89,1.75,1.78,3.5,2.67,5.25c0.9,1.74,1.75,3.51,2.6,5.28c0.84,1.78,1.73,3.52,2.53,5.33
							c3.33,7.13,6.35,14.46,9.05,22.02c2.67,7.57,5.02,15.39,6.58,23.65c1.55,8.24,2.44,16.93,1.65,26
							c0.13-1.27,0.16-2.39,0.32-3.47c0.14-1.08,0.33-2.1,0.52-3.14c0.31-2.05,0.57-4.13,0.54-6.68c-0.26-7.9-1.5-15.36-3.18-22.49
							c-0.8-3.59-1.85-7.02-2.86-10.46c-1.12-3.37-2.21-6.75-3.48-10.01c-2.44-6.58-5.24-12.89-8.17-19.13
							c-1.5-3.1-2.98-6.22-4.58-9.27c-0.79-1.53-1.56-3.08-2.38-4.61l-1.22-2.29l-0.43-0.78l-0.28-0.5
							c-0.15-0.32-0.42-0.62-0.48-0.97c-0.02-0.35-0.05-0.72-0.09-1.08l-0.1-0.96c-0.05-0.52-0.11-1.03-0.18-1.54
							c-0.12-1.03-0.28-2.04-0.45-3.05c-0.33-2.02-0.75-4.03-1.22-6.04c-0.97-4.01-2.24-7.99-3.85-11.92
							c-3.18-7.87-7.79-15.57-14.01-22.39c-3.52-4.06-8.75-7.99-14.4-10.96c-1.43-0.7-2.83-1.49-4.28-2.1
							c-1.45-0.61-2.88-1.21-4.3-1.81c-2.87-1-5.6-2.09-8.17-2.85c-8.13-2.66-16.03-4.16-23.75-5.11c-1.93-0.18-3.85-0.35-5.76-0.53
							l-1.43-0.13l-1.42-0.06l-2.84-0.12c-1.89-0.07-3.8-0.2-5.67-0.14l-2.82,0.03l-1.41,0.02l-0.71,0.01l-0.18,0
							c-0.05,0-0.03-0.01-0.04-0.01l-0.05-0.01c-0.46-0.01-0.92-0.06-1.37-0.1c-0.45-0.09-0.9-0.16-1.32-0.33l-0.63-0.24
							c-0.2-0.12-0.39-0.24-0.59-0.34c-0.21-0.09-0.39-0.22-0.57-0.36c-0.18-0.14-0.37-0.25-0.53-0.41
							c1.47,0.83,3.23,1.15,4.98,0.79c0.01-0.01,0.01-0.01,0.02-0.02c-0.02,0,0.05-0.01,0.13-0.01l0.21-0.02l0.84-0.07l1.69-0.15
							c1.13-0.09,2.26-0.19,3.4-0.29c2.28-0.15,4.62-0.16,6.95-0.24c2.33-0.12,4.73,0.07,7.12,0.13c2.39,0.03,4.82,0.31,7.26,0.56
							c2.44,0.19,4.9,0.65,7.38,1.06l1.86,0.32c0.62,0.11,1.24,0.28,1.86,0.42c1.24,0.3,2.48,0.6,3.73,0.9
							c1.25,0.27,2.48,0.71,3.72,1.1c1.24,0.4,2.48,0.78,3.72,1.21l3.68,1.48l1.84,0.76l1.8,0.88c9.64,4.59,18.62,11.57,25.3,20.19
							c6.77,8.58,11.3,18.46,13.9,28.38c0.64,2.23,1.24,4.6,1.81,7.02c0.28,1.22,0.55,2.44,0.79,3.68c0.12,0.63,0.25,1.24,0.35,1.87
							l0.16,0.95c0.03,0.01,0.07,0.14,0.1,0.21c0.1,0.24,0.2,0.47,0.29,0.7c0.13,0.22,0.38,0.39,0.56,0.57
							c0.15,0.13,0.3,0.26,0.45,0.39c0.01,0,0.05,0.06,0.1,0.13l0.13,0.2l0.26,0.39c0.17,0.26,0.34,0.51,0.51,0.76
							c0.67,1.01,1.31,1.94,1.87,2.84c-0.83-1.67-1.66-3.34-2.5-5.03c-0.07-0.18-0.2-0.35-0.22-0.54c0-0.2,0-0.39-0.01-0.59
							l-0.01-0.14l-0.05-0.69c-0.04-0.55-0.1-1.09-0.16-1.63c-0.11-1.08-0.25-2.15-0.41-3.21c-0.31-2.13-0.71-4.22-1.17-6.31
							c-0.94-4.17-2.2-8.29-3.79-12.32c-0.76-2.03-1.7-4.01-2.62-5.99c-1.01-1.95-2-3.91-3.18-5.79c-1.09-1.92-2.41-3.73-3.67-5.56
							c-0.67-0.89-1.37-1.77-2.06-2.64l-1.04-1.31l-1.12-1.25c-4.96-5.54-11-10.43-17.65-14.23c-6.66-3.82-13.88-6.56-21.18-8.38
							c-7.32-1.89-14.71-2.62-22-2.94c-1.82-0.04-3.63-0.08-5.45-0.12l-5.39,0.18l-2.69,0.1c-0.89,0.05-1.77,0.15-2.66,0.22
							l-2.65,0.24l-1.33,0.12l-0.66,0.06l-0.15,0.01l0.01,0l0.02,0.01c-1.94,0.47-4.09-0.22-5.56-1.71c-0.19-0.2-0.36-0.33-0.57-0.6
							l-0.77-0.97c-0.53-0.81-1.09-1.57-1.61-2.51c-0.54-0.86-1.02-1.9-1.54-2.87c-0.47-1.05-0.98-2.05-1.41-3.16
							c-1.82-4.34-3.35-9.08-4.69-13.88c-1.34-4.8-2.52-9.67-3.6-14.49c-2.17-9.65-4-19.1-5.87-28.01
							c-1.89-8.93-3.8-17.32-6.3-25.18c-0.35-0.71-0.69-1.41-1.12-2.3c-0.48-0.89-1.03-1.96-1.84-3.39
							c-0.27-0.81-0.69-1.87-1.28-3.05c-0.76-1.24-1.39-2.42-2.4-3.82l-0.71-1.02c-0.24-0.34-0.47-0.68-0.79-1.06
							c-0.59-0.74-1.2-1.47-1.83-2.2c-2.58-2.85-5.66-5.38-9.2-7.19c-3.53-1.81-7.51-2.87-11.52-2.96c-4.01-0.1-8.04,0.5-11.84,1.71
							c1.61-0.53,3.21-1.11,4.87-1.4c0.83-0.17,1.65-0.33,2.48-0.47c0.83-0.09,1.67-0.16,2.51-0.22l1.25-0.08
							c0.42-0.01,0.84,0.02,1.25,0.03c0.84,0.04,1.67,0.08,2.5,0.15c1.64,0.28,3.31,0.49,4.88,1.06c6.42,1.91,11.82,6.5,15.75,11.81
							l1.67,2.19c0.29,0.38,0.52,0.72,0.74,1.06l0.69,1.03c0.96,1.39,1.67,2.75,2.49,4.14c1.45,2.73,2.79,5.49,3.88,8.2
							c2.27,5.45,4,10.83,5.54,16.2c3.06,10.72,5.33,21.39,7.68,31.85c1.17,5.22,2.36,10.38,3.66,15.39
							c1.3,4.99,2.71,9.87,4.37,14.2c0.81,2.19,1.71,4.18,2.62,5.94c0.23,0.42,0.45,0.87,0.69,1.26l0.69,1.11
							c0.11,0.21,0.23,0.31,0.34,0.48l0.29,0.41l0.11,0.16l0.07,0.09l0.15,0.17c0.78,0.92,2,1.47,3.2,1.3l4.71-0.28
							c0.9-0.05,1.79-0.12,2.69-0.14l2.73-0.02l5.46-0.02l5.53,0.27c7.39,0.53,14.89,1.45,22.4,3.55c7.49,2.03,14.96,5,21.94,9.16
							c6.97,4.15,13.44,9.47,18.76,15.7c4.63,5.22,9.2,12.66,12.18,20.94c1.53,4.13,2.73,8.45,3.58,12.78
							c0.41,2.17,0.77,4.34,1.03,6.51c0.13,1.08,0.25,2.17,0.34,3.26c0.05,0.54,0.09,1.08,0.12,1.64l0.03,0.41l0.01,0.21l0.01,0.1
							c0,0.05-0.01-0.05-0.01-0.07l-0.01,0.15c-0.01,0.19-0.03,0.38-0.04,0.56c0.01,0.19,0.12,0.35,0.18,0.52l0.14,0.31l0.14,0.29
							l0.33,0.65c0.44,0.86,0.88,1.71,1.3,2.54c0.84,1.66,1.64,3.24,2.43,4.7c5.45,10.49,10.57,21.42,14.74,33.13l1.53,4.41
							c0.52,1.47,0.94,3,1.42,4.5c0.96,2.99,1.74,6.1,2.54,9.2c0.41,1.54,0.7,3.16,1.05,4.74c0.34,1.59,0.68,3.17,0.92,4.81
							l0.76,4.9l0.51,5.02c0.53,6.75,0.51,13.75-0.52,20.91c-1.09,7.16-3.31,14.46-6.85,21.19c-3.51,6.74-8.34,12.79-13.8,17.69
							c-5.5,4.89-11.55,8.53-17.61,11.51c-9.13,4.39-18.43,7.12-27.59,9.02l-6.86,1.22l-1.71,0.3l-0.9,0.09l-1.75,0.17l-1.78,0.17
							l-0.22,0.02l-0.15,0.01l-0.3,0.01l-0.6,0.02l-1.23,0.04l-0.63,0.02l-0.32,0.01c-0.09,0.02-0.26-0.04-0.23,0.09l-0.21,1.96
							l-0.33,2.06c-0.06,0.35-0.16,0.71-0.22,1.05l-0.54,3.09c-0.5,2.13-0.99,4.25-1.58,6.37c-1.35,4.25-2.87,8.51-5.22,12.6
							c-1.05,2.07-2.46,4.03-3.83,5.97c-0.32,0.49-0.72,0.95-1.11,1.41l-1.18,1.37c-0.8,0.91-1.56,1.83-2.48,2.64l-2.68,2.46
							c-0.94,0.75-1.93,1.46-2.9,2.17c-0.49,0.35-0.97,0.72-1.47,1.05l-1.54,0.91c-1.04,0.58-2.06,1.22-3.11,1.73
							c-2.14,0.95-4.26,1.98-6.45,2.62c-1.09,0.34-2.17,0.76-3.26,1.01l-3.26,0.76c-1.09,0.28-2.16,0.41-3.24,0.58l-3.23,0.46
							l-3.18,0.23c-1.06,0.07-2.13,0.17-3.16,0.15c-2.08-0.01-4.19,0.08-6.22-0.09c-2.04-0.12-4.1-0.2-6.09-0.46
							c-8.03-0.84-15.73-2.46-23.23-4.44c-7.5-1.97-14.76-4.42-21.9-7.04c-7.15-2.61-14.13-5.51-21.01-8.54l-5.15-2.29l-2.37-1.11
							l-1.7-0.83c-2.26-1.06-4.58-2.36-6.94-3.41c-1.2,1.37-2.43,2.78-3.71,4.19l-4.49,4.83c-3.84,4.09-7.82,8.05-12.01,11.83
							c-4.18,3.77-8.59,7.34-13.27,10.58c-2.34,1.62-4.74,3.15-7.25,4.55c-2.48,1.42-5.07,2.69-7.74,3.8
							c-5.31,2.24-11.07,3.71-16.94,3.91c-5.86,0.22-11.78-1-16.98-3.47c-5.22-2.46-9.73-6.02-13.62-10
							c-1.93-2.01-3.72-4.13-5.41-6.32c-1.66-2.2-3.22-4.47-4.67-6.79c-5.79-9.32-10.14-19.34-13.82-29.52
							c-1.84-5.1-3.49-10.25-5.02-15.43c-0.76-2.59-1.49-5.19-2.19-7.8l-1.03-3.91l-1.03-4.11l-1.09-4.45l-0.28-1.12
							c0-0.22-0.2-0.3-0.34-0.41l-0.45-0.33l-1.8-1.32l-3.65-2.67c-0.66-0.46-1.12-0.86-1.64-1.29l-1.55-1.26l-3.09-2.51l-2.96-2.65
							c-2.01-1.72-3.82-3.63-5.7-5.46c-0.96-0.9-1.79-1.91-2.67-2.87c-0.86-0.98-1.77-1.92-2.59-2.92c-1.59-2.05-3.3-4-4.71-6.15
							c-3.03-4.16-5.48-8.63-7.51-13.2c-0.75-1.57-1.62-3.1-2.2-4.73c-0.65-1.61-1.33-3.2-1.78-4.86c0.1,0.76,0.15,1.53,0.29,2.28
							c0.15,0.74,0.29,1.48,0.44,2.22l-0.72-2.36l-0.53-2.41l-0.53-2.39l-0.33-2.42c-0.61-2.32-0.83-4.7-1.19-7.06
							c-0.11-2.39-0.37-4.76-0.23-7.15c-0.03-2.38,0.28-4.77,0.5-7.14c0.15-1.18,0.39-2.36,0.59-3.54l0.31-1.76l0.43-1.75l0.87-3.48
							l1.1-3.43c0.19-0.57,0.36-1.14,0.56-1.71l0.66-1.68l1.32-3.35c1.98-4.39,4.12-8.7,6.7-12.79c1.11-1.65,1.26-1.69,0.85-0.74
							c-0.2,0.47-0.55,1.19-1,2.08c-0.22,0.45-0.47,0.93-0.73,1.46c-0.24,0.53-0.49,1.1-0.76,1.69c-2.31,4.66-4.49,11.14-4.93,14.06
							c0.79-1.98,1.51-3.96,2.14-5.43c0.66-1.46,1.09-2.43,1.09-2.43s0.25,0.96,0.5,1.93c0.48-1.55,1.06-2.71,1.68-3.71
							c0.67-0.99,1.38-1.83,2.05-2.78c-4.37,9.4-7.43,19.2-8.35,28.92c-0.53,4.86-0.36,9.69,0.32,14.4
							c0.7,4.71,1.87,9.34,3.79,13.76c0.39,1.13,0.99,2.19,1.5,3.29l0.78,1.63c0.27,0.54,0.6,1.06,0.9,1.59
							c0.63,1.05,1.19,2.13,1.86,3.16l2.07,3.07c0.33,0.52,0.71,1.02,1.1,1.51l1.15,1.48c0.76,0.99,1.51,1.99,2.39,2.92l2.51,2.85
							l2.71,2.73l1.35,1.37c0.47,0.44,0.96,0.87,1.44,1.31l2.89,2.61c0.98,0.85,2.03,1.66,3.04,2.49c1.03,0.82,2,1.69,3.09,2.45
							l3.2,2.36l0.8,0.59l0.4,0.3l0.21,0.15l0.33,0.22l2.61,1.75l5.21,3.5l0.65,0.44c0.19,0.17,0.51,0.23,0.52,0.55l0.45,1.58
							l0.91,3.17c-0.1-1.06-0.28-2.31-0.54-3.73c-0.07-0.35-0.13-0.72-0.2-1.09c-0.04-0.19-0.07-0.37-0.11-0.56
							c-0.09-0.14-0.26-0.23-0.39-0.35c-0.57-0.44-1.15-0.91-1.76-1.38c-1.24-0.95-2.59-1.95-4.01-2.98
							c-0.72-0.51-1.44-1.04-2.18-1.56l-0.56-0.4l-0.27-0.19l-0.16-0.13l-0.65-0.52c-1.73-1.4-3.58-2.73-5.16-4.04
							c-1.57-1.32-3-2.52-4.1-3.48c-5.29-4.33-10.14-9.03-14.1-14.07c-3.97-5.03-7.01-10.4-8.87-15.79
							c-1.6-3.64-2.52-7.49-3.21-11.39l-0.37-2.95c-0.14-0.98-0.11-1.99-0.18-2.98c-0.17-1.98,0.03-4.01,0.06-6.01
							c0.64-8.07,2.85-16.22,6.26-24.07c3.42-7.86,7.86-15.45,12.81-22.7c4.96-7.26,10.43-14.2,16.05-20.89
							c4.38-4.76,9.07-9.27,13.72-13.51c1.56-1.37,2.1-1.52,1.87-0.83c-0.12,0.35-0.42,0.9-0.88,1.63c-0.43,0.7-1,1.56-1.7,2.53
							c-1.39,1.94-3.24,4.32-5.2,6.86C483.45,454.58,481.35,457.26,479.24,459.67z M759.11,615.68c-0.86,0.02-1.72,0.05-2.58,0.07
							l-1.32,0.03l-0.67,0.02l-0.34,0.01c-0.04,0.01-0.14-0.02-0.14,0.03l-0.02,0.14l-0.31,2.54c-0.09,0.86-0.21,1.74-0.4,2.63
							l-0.5,2.74c-0.09,0.46-0.23,0.93-0.34,1.4l-0.18,0.75l-0.22,0.98c-1.25,5.2-2.87,10.41-5.52,15.28
							c-2.05,4.31-4.68,8.36-8.05,11.83c-4.21,4.24-9.63,7.82-15.72,10.23c-6.06,1.93-12.31,2.58-18.42,2.56
							c-6.12-0.05-12.17-0.7-18.08-1.82c-11.84-2.23-23.29-5.79-34.47-10.01c2.73,1.25,5.54,2.34,8.36,3.52
							c1.42,0.56,2.85,1.08,4.29,1.63c1.44,0.55,2.89,1.09,4.37,1.56c5.88,2.07,12.05,3.77,18.56,5.1
							c6.51,1.29,13.42,2.15,20.77,1.85c1.84-0.11,3.7-0.16,5.58-0.47c0.94-0.13,1.89-0.27,2.84-0.4c0.95-0.21,1.9-0.43,2.86-0.64
							l1.44-0.33c0.48-0.11,0.95-0.3,1.43-0.44c0.96-0.32,1.92-0.64,2.89-0.96c0.96-0.36,1.89-0.82,2.85-1.24l1.43-0.65
							c0.47-0.24,0.92-0.52,1.38-0.78c-5.37,3.12-11.22,4.87-16.95,5.75c-5.74,0.87-11.42,1-16.93,0.6
							c-1.38-0.06-2.74-0.26-4.1-0.38l-2.04-0.21c-0.68-0.08-1.34-0.2-2.01-0.3c-1.34-0.21-2.67-0.42-4.01-0.62
							c-1.32-0.26-2.63-0.53-3.94-0.79l-1.96-0.4l-1.94-0.47c-1.29-0.31-2.57-0.63-3.86-0.94c-2.54-0.7-5.07-1.39-7.57-2.16
							c-9.98-3.08-19.53-6.79-28.81-10.84c-4.64-2.02-9.21-4.15-13.72-6.32c-2.17-1.08-4.32-2.11-6.54-3.24l-3.34-1.71l-1.7-0.87
							l-0.86-0.44l-0.43-0.22l-0.22-0.11c-0.07-0.03-0.15-0.11-0.19-0.01c-4.78,5.43-10.31,11.44-15.76,16.6
							c-5.52,5.26-11.29,10.22-17.45,14.52c-6.14,4.28-12.69,7.96-19.52,10.15c-6.81,2.2-13.85,2.63-20.17,0.71
							c-4.43-1.16-8.58-3.44-12.34-6.46c-3.78-3-7.16-6.75-10.24-10.83c-6.13-8.24-11.01-17.83-15.27-27.84
							c-3.02-7.06-5.73-14.23-8.22-21.44c-1.24-3.61-2.44-7.22-3.58-10.84l-1.06-3.43l-1.11-3.69l-0.55-1.84l-0.14-0.46
							c-0.04-0.16-0.24-0.19-0.35-0.29l-0.78-0.51l-3.11-2.03l3.35,2.38l0.42,0.3c0.13,0.11,0.32,0.16,0.32,0.37l0.27,1.04
							l0.54,2.07l1.97,7.53c1.1,4.09,2.22,8.16,3.46,12.2c2.45,8.08,5.2,16.04,8.44,23.76c3.23,7.72,6.96,15.22,11.54,22.09
							c4.59,6.83,10.08,13.12,16.95,17.38c1.71,1.06,3.52,1.95,5.38,2.72c1.87,0.75,3.81,1.3,5.79,1.72
							c1.99,0.39,4.02,0.57,6.06,0.61c2.05,0.01,4.1-0.17,6.15-0.48c8.21-1.35,16.03-5.14,23.14-9.8
							c7.14-4.68,13.7-10.28,19.89-16.23c1.53-1.51,3.07-3.01,4.56-4.56c0.76-0.77,1.5-1.54,2.23-2.33l2.14-2.28
							c2.68-2.89,5.2-5.75,7.6-8.55c6.23,2.93,11.52,5.74,18.75,8.89c6.82,3.05,13.72,5.97,20.76,8.6
							c7.04,2.64,14.18,5.1,21.54,7.09c7.35,2,14.88,3.63,22.67,4.5c1.94,0.27,3.91,0.36,5.89,0.49c1.97,0.18,3.99,0.09,5.99,0.12
							c1,0.03,2.02-0.06,3.03-0.12l3.05-0.2l3.07-0.42c1.03-0.15,2.05-0.26,3.08-0.53l3.09-0.7c1.03-0.23,2.05-0.62,3.07-0.93
							c2.07-0.58,4.05-1.54,6.06-2.42c0.99-0.47,1.94-1.06,2.92-1.6l1.45-0.83c0.47-0.3,0.92-0.64,1.38-0.97
							c0.91-0.66,1.83-1.31,2.72-2l2.51-2.28c0.87-0.74,1.59-1.6,2.33-2.45c0.72-0.86,1.54-1.67,2.17-2.59
							c1.29-1.82,2.63-3.64,3.63-5.6c2.25-3.84,3.72-7.9,5.03-11.96c0.57-2.03,1.06-4.07,1.55-6.12l0.53-3.01
							c0.09-0.48,0.22-0.99,0.29-1.48l0.41-2.92l0.24-2.81c-0.05-0.18,0.17-0.12,0.29-0.14l0.42-0.02l0.83-0.04l1.63-0.08l1.6-0.08
							l2-0.21l1.99-0.21l0.98-0.1l0.49-0.05c0.17-0.02,0.5-0.08,0.75-0.12l6.38-1.11c8.51-1.69,17.09-4.04,25.5-7.76
							c8.38-3.71,16.68-8.94,23.59-16.24c6.98-7.23,11.87-16.72,14.41-26.32c0.39-1.2,0.56-2.41,0.82-3.62
							c0.24-1.21,0.49-2.42,0.7-3.63l0.42-3.61c0.13-1.2,0.29-2.42,0.31-3.6c0.08-2.37,0.26-4.79,0.14-7.11l-0.1-3.52
							c-0.03-1.18-0.18-2.31-0.26-3.46c-0.79-9.21-2.65-18.02-5.03-26.52c-4.78-17.01-11.62-32.82-19.11-48.15
							c3.35,7.52,6.56,15.09,9.48,22.82c2.89,7.74,5.53,15.61,7.72,23.69c2.18,8.08,3.91,16.39,4.76,25
							c0.84,8.59,0.78,17.55-1.04,26.52l-0.72,3.35c-0.29,1.11-0.66,2.22-0.99,3.33l-0.51,1.66l-0.26,0.83l-0.33,0.81l-1.33,3.24
							c-0.24,0.53-0.42,1.08-0.7,1.6l-0.82,1.56l-1.66,3.09c-0.62,0.99-1.29,1.96-1.94,2.93c-0.67,0.96-1.26,1.97-2.05,2.84
							c-5.78,7.37-13.18,13-20.93,17.05c-7.78,4.08-15.92,6.72-24.07,8.63c-2.04,0.43-4.08,0.92-6.13,1.3
							c-2.05,0.33-4.09,0.66-6.15,0.99c-0.49,0.08-1.06,0.18-1.5,0.23l-1.15,0.11l-2.32,0.22l-2.36,0.23l-0.59,0.06l-0.53,0.03
							L759.11,615.68z M779.55,609.99l2.4-0.6c0.8-0.22,1.58-0.49,2.37-0.73l4.73-1.49c3.09-1.23,6.24-2.3,9.23-3.84
							c6.03-2.87,11.88-6.42,16.9-11.11c5.05-4.62,9.28-10.26,12.19-16.48c2.94-6.21,4.57-12.91,5.2-19.53
							c0.9-8.42,0.32-16.89-1.06-25.1c-1.39-8.23-3.58-16.24-6.17-24.02c-2.62-7.77-5.59-15.35-8.89-22.65
							c-0.78-1.85-1.66-3.63-2.49-5.44c-0.84-1.8-1.67-3.6-2.56-5.36c-0.87-1.76-1.75-3.52-2.61-5.27c-0.82-1.57-1.63-3.14-2.45-4.7
							c-0.14-0.27-0.28-0.54-0.42-0.81l-0.21-0.4l-0.1-0.2c-0.01-0.07,0-0.15-0.01-0.22c-0.01-0.61-0.05-1.2-0.1-1.8l-0.13-1.4
							c-0.05-0.56-0.13-1.1-0.19-1.66c-0.13-1.1-0.32-2.18-0.49-3.26c-0.4-2.15-0.83-4.28-1.41-6.36
							c-1.11-4.16-2.57-8.18-4.34-11.97c-0.87-1.91-1.88-3.73-2.88-5.53c-1.1-1.75-2.15-3.5-3.38-5.12
							c-1.14-1.67-2.49-3.17-3.74-4.7c-0.68-0.72-1.36-1.43-2.04-2.14l-1.02-1.05l-1.08-0.98c-5.7-5.24-12.07-9.07-18.35-11.6
							c-6.3-2.55-12.48-3.86-18.13-4.59c7.02,1.31,14,3.44,20.55,6.7c0.41,0.2,0.83,0.38,1.23,0.6l1.19,0.68l2.39,1.37
							c1.57,0.96,3.08,2.03,4.6,3.08c2.92,2.27,5.79,4.66,8.29,7.44c1.32,1.33,2.45,2.82,3.65,4.26c0.58,0.74,1.1,1.52,1.65,2.27
							l0.82,1.15l0.75,1.19c2.06,3.14,3.76,6.52,5.24,9.98c1.47,3.47,2.68,7.06,3.6,10.73l0.64,2.77c0.18,0.93,0.38,1.86,0.53,2.8
							c0.15,0.94,0.31,1.88,0.42,2.83c0.06,0.47,0.13,0.95,0.17,1.43l0.07,0.69l0.05,0.54c0.06,0.65,0.1,1.3,0.12,1.96
							c0.01,0.08,0,0.16,0.01,0.24l0.12,0.22l0.23,0.43c0.16,0.29,0.31,0.58,0.47,0.88c0.86,1.61,1.73,3.23,2.59,4.85
							c0.89,1.75,1.79,3.51,2.68,5.27c0.91,1.75,1.76,3.54,2.62,5.32c0.85,1.79,1.74,3.56,2.55,5.38
							c3.37,7.21,6.41,14.64,9.11,22.28c2.68,7.64,4.97,15.52,6.48,23.7c1.5,8.16,2.23,16.65,1.4,25.27c0.1-1.01,0.2-2,0.3-2.96
							c0.03-0.96,0.06-1.88,0.09-2.79c0.02-0.9,0.05-1.78,0.07-2.63c0.02-0.85-0.05-1.66-0.07-2.45c-0.08-1.58-0.08-3.07-0.22-4.43
							c-0.14-1.36-0.26-2.62-0.38-3.79c-0.06-0.58-0.12-1.14-0.18-1.67c-0.08-0.53-0.16-1.03-0.24-1.51
							c-0.15-0.96-0.29-1.82-0.41-2.59c-0.12-0.77-0.23-1.44-0.33-2.03c-0.12-0.58-0.22-1.06-0.31-1.47
							c-0.34-1.6-0.4-1.81-0.19-0.75c0.1,0.53,0.27,1.37,0.49,2.52c0.18,1.16,0.4,2.62,0.66,4.37c0.51,3.5,0.98,8.21,1.03,14.02
							c0,5.79-0.6,12.78-2.94,20.38c-2.27,7.6-6.92,15.62-13.81,22.37l-0.63,0.65l-0.69,0.59c-0.46,0.39-0.92,0.79-1.39,1.18
							c-0.47,0.4-0.93,0.79-1.4,1.19c-0.47,0.4-0.94,0.81-1.45,1.15c-2.03,1.4-4.03,2.96-6.27,4.16c-1.1,0.64-2.21,1.28-3.33,1.92
							c-1.15,0.56-2.32,1.12-3.49,1.68c-2.32,1.21-4.8,2.06-7.27,3.07c-0.87,0.47-2.32,0.97-4.15,1.58
							C784.24,608.63,782.03,609.4,779.55,609.99z"/>
						<path class="st2" d="M489.41,632.65c-2.17-6.73-4.06-13.56-5.78-20.42l-1.25-5.16l-1.23-5.35l-0.63-2.82l-0.32-1.42
							c-0.02-0.05-0.01-0.13-0.06-0.17L480,597.2l-0.28-0.21l-0.56-0.42l-4.52-3.44c-0.37-0.29-0.79-0.59-1.12-0.87l-1.01-0.85
							l-2.01-1.69l-2-1.69c-0.66-0.57-1.28-1.18-1.93-1.77c-1.27-1.2-2.57-2.34-3.79-3.57l-3.6-3.72
							c-4.65-5.07-8.81-10.5-12.14-16.24c0.26,0.59,0.52,1.17,0.77,1.76c0.28,0.57,0.58,1.12,0.87,1.68
							c0.59,1.13,1.18,2.24,1.77,3.36c0.64,1.08,1.32,2.15,1.99,3.24c0.67,1.09,1.35,2.19,2.13,3.23c0.77,1.06,1.55,2.13,2.34,3.22
							c0.79,1.1,1.72,2.11,2.61,3.21c0.92,1.06,1.82,2.22,2.86,3.28c1.04,1.07,2.1,2.17,3.21,3.31c0.75,0.76,1.55,1.47,2.36,2.18
							c0.81,0.71,1.63,1.42,2.44,2.14c1.65,1.49,3.29,2.72,4.88,3.99c0.79,0.64,1.62,1.24,2.37,1.89c0.22,1.01,0.43,2.03,0.65,3.05
							c0.22,0.99,0.44,1.98,0.66,2.98c0.26,1.08,0.52,2.17,0.78,3.26c2.17,8.73,4.76,17.55,7.94,26.27
							c3.18,8.72,6.9,17.37,11.55,25.65c4.66,8.24,10.21,16.21,17.7,22.78c1.89,1.64,3.93,3.17,6.1,4.57c2.2,1.37,4.53,2.58,7,3.59
							c4.94,1.98,10.43,3.02,15.84,2.91c2.71-0.02,5.4-0.32,8.01-0.83c2.63-0.48,5.16-1.2,7.63-2.04c4.93-1.7,9.55-3.95,13.85-6.52
							c8.63-5.15,16.22-11.42,23.25-18.09c3.51-3.34,6.9-6.79,10.15-10.34c1.46-1.44,2.93-2.98,4.22-4.37
							c2.28,1.61,20.17,9.8,33.74,14.62c7.19,2.63,14.55,5.05,22.2,7.03c7.64,1.99,15.53,3.61,23.85,4.45l3.13,0.3l3.2,0.15
							c1.07,0.03,2.12,0.13,3.22,0.11l3.28-0.04c2.17,0.03,4.45-0.26,6.68-0.42c1.11-0.06,2.28-0.31,3.42-0.47
							c1.15-0.2,2.28-0.33,3.44-0.59c2.33-0.58,4.64-1.02,6.99-1.9c1.17-0.41,2.34-0.77,3.5-1.26l3.47-1.58
							c4.55-2.31,9.05-5.24,12.78-9.01l1.43-1.38c0.45-0.48,0.86-0.99,1.29-1.48c0.85-1,1.71-2,2.51-3.03l2.18-3.2
							c0.35-0.54,0.74-1.07,1.04-1.62l0.9-1.66c0.59-1.11,1.2-2.23,1.74-3.35l1.42-3.39l0.69-1.7c0.21-0.57,0.37-1.13,0.56-1.69
							l1.07-3.4c0.65-2.26,1.09-4.49,1.61-6.75l0.53-3.32l0.13-0.67l0.17-1.18l0.1-1.14c-0.03-0.09,0.11-0.04,0.16-0.06l0.21-0.01
							l0.42-0.02l0.83-0.04l0.2-0.01l0.11-0.01l0.22-0.03l0.86-0.11l1.72-0.22l0.86-0.11l2.08-0.4l4.23-0.83l2.12-0.42l2.13-0.53
							l4.27-1.07c1.47-0.29,3.4-0.88,5.6-1.55c1.1-0.34,2.27-0.7,3.5-1.08c1.22-0.44,2.49-0.95,3.79-1.45
							c1.3-0.53,2.63-1.01,3.95-1.63c1.32-0.65,2.65-1.31,3.98-1.96c0.66-0.34,1.31-0.67,1.96-1c0.64-0.37,1.27-0.77,1.9-1.15
							c1.25-0.77,2.45-1.54,3.6-2.29c-10.33,6.13-21.02,9.72-31.39,12.15c-1.3,0.3-2.6,0.64-3.89,0.89l-3.87,0.7l-3.86,0.69
							l-0.23,0.04l-0.11,0.01l-0.21,0.02l-0.42,0.04l-0.85,0.09l-1.72,0.17l-0.43,0.04c-0.14,0.01-0.31,0.03-0.36,0.03l-0.48,0.01
							l-0.99,0.02l-0.51,0.01l-0.26,0.01c-0.07,0.02-0.22-0.04-0.19,0.07l-0.17,1.43l-0.27,1.52l-0.18,0.83l-0.55,3.27
							c-0.54,2.21-0.99,4.4-1.64,6.61l-1.08,3.32c-0.19,0.55-0.36,1.1-0.56,1.65l-0.69,1.65l-1.41,3.29
							c-0.53,1.09-1.14,2.17-1.72,3.24c-1.08,2.17-2.64,4.21-4.03,6.26c-0.77,1-1.62,1.95-2.45,2.92l-1.25,1.43l-1.39,1.32
							c-3.61,3.63-7.97,6.41-12.36,8.64l-3.36,1.51c-1.12,0.49-2.26,0.81-3.39,1.21c-2.27,0.84-4.52,1.27-6.78,1.82
							c-1.13,0.27-2.23,0.38-3.35,0.57c-1.11,0.15-2.24,0.37-3.33,0.45l-3.28,0.25l-1.64,0.11l-1.61,0.02
							c-2.14,0.02-4.29,0.06-6.36-0.09l-3.13-0.17c-1.04-0.08-2.05-0.2-3.07-0.3c-8.17-0.85-15.96-2.48-23.52-4.47
							c-7.56-1.98-14.86-4.41-22.02-7.03c-3.59-1.28-7.1-2.71-10.63-4.09c-3.48-1.46-6.99-2.87-10.41-4.42l-5.15-2.28l-1.27-0.59
							l-0.63-0.29l-0.33-0.17l-1.34-0.67c-1.78-0.86-3.62-1.92-5.5-2.79c-1.21,1.36-2.48,2.76-3.84,4.18l-1.02,1.07l-0.26,0.27
							l-0.11,0.11l-0.23,0.25l-0.91,0.98c-1.2,1.31-2.45,2.6-3.69,3.88c-4.99,5.12-10.27,10.04-15.95,14.57
							c-5.68,4.53-11.81,8.67-18.58,11.95c-6.74,3.25-14.31,5.59-22.22,5.69c-7.9,0.17-15.81-2.32-22.14-6.48
							c-6.39-4.14-11.44-9.6-15.66-15.39c-4.22-5.81-7.63-12.02-10.61-18.37C494.15,645.76,491.64,639.24,489.41,632.65z"/>
						<path class="st2" d="M810.01,424.98c-3.12-5.73-6.99-11.17-11.49-16.03c-4.5-4.85-9.6-9.14-15.05-12.65
							c-5.46-3.46-11.18-6.25-16.92-8.4c-5.75-2.04-11.51-3.68-17.14-4.68c5.06,1.18,10.62,3.01,16.34,5.23
							c5.71,2.41,11.58,5.42,17.13,9.25c5.56,3.8,10.68,8.51,15.01,13.61c4.33,5.11,7.83,10.62,10.5,16.02
							c2.59,5.11,4.62,10.41,6.12,15.8c0.72,2.7,1.38,5.41,1.85,8.16c0.26,1.37,0.45,2.76,0.64,4.16l0.24,2.11l0.11,1.21l0.03,0.3
							c0.02,0.1,0.09,0.18,0.14,0.27l0.1,0.17l0.54,1.04l1.45,2.81c0.94,1.9,1.88,3.79,2.82,5.69c0.95,1.88,1.83,3.83,2.74,5.74
							c0.91,1.91,1.8,3.84,2.65,5.8c3.47,7.76,6.66,15.72,9.38,23.98c-0.63-2.06-1.21-4.16-1.89-6.19
							c-0.68-2.03-1.36-4.07-2.04-6.11c-1.46-4.01-2.92-8.03-4.54-11.97c-0.78-1.99-1.6-3.95-2.45-5.91
							c-0.85-1.95-1.66-3.94-2.55-5.86c-0.88-1.94-1.77-3.88-2.66-5.83l-1.38-2.89l-0.35-0.72l-0.15-0.31l0-0.02l0.01-0.06
							c0.01-0.03,0.01-0.05,0.03-0.08l0.05-0.07c0.01-0.03,0.01,0.04,0.01-0.08l-0.08-1.14l-0.21-2.23
							c-0.17-1.47-0.35-2.94-0.59-4.4c-0.45-2.92-1.09-5.8-1.84-8.69C815.02,436.25,812.87,430.52,810.01,424.98z"/>
						<path class="st2" d="M811.94,608.5c5.8-3.59,11.44-7.96,16.43-13.45c5.69-6.29,10.16-14.04,12.86-22.13
							c2.74-8.1,3.81-16.39,3.87-24.29c0.05-7.93-0.86-15.54-2.26-22.87c-1.38-7.36-3.42-14.34-5.65-21.2
							c2.1,7.33,3.9,14.83,5.09,22.63c1.14,7.82,1.71,15.93,1.13,24.34c-0.58,8.37-2.38,17.11-6.08,25.35
							c-0.4,1.04-0.96,2.04-1.49,3.04l-1.61,2.99c-1.15,1.95-2.48,3.8-3.74,5.67c-1.41,1.76-2.85,3.5-4.32,5.18
							c-1.58,1.56-3.14,3.16-4.78,4.63C822.3,599.2,818.35,604.02,811.94,608.5z"/>
					</g>
				</g>
			</g>
		</g>
	</g>
</g>
<g>
	<path class="st0" d="M784.68,408.93"/>
	<g>
		<path class="st3" d="M784.68,408.93"/>
	</g>
</g>
<g>
	<path class="st0" d="M338.84,719.89c41.79,10.96,77.26-40.61,46.12-32.09s-11.02-27.06-20.23-34.69
		c-24.55-20.33-24.85,35.59-44.1,26.35c-42.14-20.22-33.62,20.09-33.62,20.09c0.91,6.83-9.6,35.94,4.06,17.63
		C304.72,698.87,313.29,739.88,338.84,719.89z"/>
	<g>
		<g>
			<g>
				<g class="st1">
					<g>
						<path class="st2" d="M342.52,740.23c-4.47,2.1-9.14,3.33-13.75,3.73c-4.62,0.4-9.19-0.14-13.49-1.43
							c-1.08-0.32-2.14-0.67-3.17-1.1c-1.04-0.41-2.07-0.85-3.07-1.35l-1.5-0.75l-1.34-0.75l-1.32-0.77l-1.08-0.68l-1.06-0.68
							l-0.92-0.62l-0.91-0.62c-0.11-0.08-0.04-0.02-0.07-0.04l-0.01,0l-0.02,0.01c-0.05,0.02-0.11,0.04-0.16,0.09
							c-0.11,0.05-0.08-0.12-0.23-0.46c-0.14-0.34-0.45-0.7-0.85-0.85c-0.2-0.08-0.45-0.12-0.75-0.13
							c-0.06,0.02-0.04-0.04-0.16,0.04l-0.27,0.21l-0.14,0.1l-0.32,0.26l-0.66,0.52l-0.84,0.62c-0.25,0.18-0.66,0.46-1.04,0.7
							l-0.58,0.36l-0.8,0.46l-0.83,0.43c-0.34,0.17-0.78,0.37-1.18,0.53l-0.62,0.24c-0.21,0.08-0.38,0.14-0.72,0.25
							c-0.61,0.2-1.23,0.37-1.86,0.5c-0.5,0.12-1.58,0.29-2.46,0.35c-0.46,0.03-0.92,0.05-1.37,0.05l-0.34,0l-0.45-0.02
							c-0.3-0.02-0.6-0.04-0.9-0.07c-0.6-0.06-1.2-0.16-1.79-0.29c-0.58-0.12-1.16-0.27-1.83-0.5c-1.27-0.43-2.56-1.04-3.63-1.72
							c-1.05-0.67-2.05-1.46-2.93-2.33c-0.7-0.71-1.33-1.46-1.9-2.26l-0.4-0.58l-0.28-0.45c-0.18-0.31-0.35-0.62-0.52-0.93
							s-0.32-0.63-0.46-0.96c-0.13-0.28-0.2-0.48-0.3-0.72c-0.18-0.47-0.34-0.94-0.49-1.42c-0.11-0.38-0.19-0.71-0.27-1.06
							c-0.18-0.78-0.24-1.23-0.31-1.78c-0.23-1.99-0.15-3.09-0.09-4.1c0.07-1,0.19-1.75,0.3-2.47c0.24-1.4,0.5-2.56,0.76-3.63
							c0.53-2.14,1.06-4.03,1.54-5.86c0.59-2.04,1.11-3.94,1.49-5.54l0.25-1.07l0.12-0.37c0.07-0.25,0.13-0.51,0.11-0.76l0-0.19
							l-0.14-1.26l-0.12-1.39l-0.11-1.67c-0.04-0.58-0.05-1.2-0.07-1.8c-0.03-2.43,0.01-4.88,0.34-7.29
							c1.13-6.04,3.47-11.73,7.43-16.18c1.99-2.2,4.36-4.11,7.04-5.46c2.69-1.32,5.57-2.28,8.6-2.62c0.74-0.16,1.51-0.15,2.27-0.2
							c0.77-0.02,1.52-0.11,2.3-0.05l2.32,0.14l1.16,0.07l1.16,0.2c1.55,0.28,3.1,0.45,4.62,0.92c1.49,0.41,3.17,0.78,4.38,1.25
							l1.96,0.69c0.65,0.23,1.33,0.47,1.83,0.7c1.08,0.45,2.16,0.91,3.25,1.36c1.04,0.48,2.08,0.97,3.12,1.46l0.78,0.36l0.39,0.18
							l0.1,0.05c0.02,0.01,0.01,0,0.02,0.01l0.03,0.01c0.03,0.01,0.07,0.04,0.09,0.05l0,0c-0.05,0.14-0.13,0.4-0.18,0.6
							c-0.1,0.32-0.2,0.62-0.27,1.05c-0.04,0.24-0.07,0.32-0.1,0.5c-0.03,0.15-0.04,0.38-0.05,0.49c-0.05,0.56,0.01,0.72-0.02,0.58
							c-0.03-0.17-0.06-0.23-0.15-0.51c-0.04-0.11-0.08-0.2-0.13-0.3c-0.06-0.14-0.11-0.27-0.17-0.38c-0.2-0.38-0.41-0.78-0.32-0.6
							c-0.33-0.58-0.8-1.33-1.42-2.12c-0.24-0.32-0.14-0.19-0.15-0.21c0.01,0.01,0.02,0.03,0.04,0.02c0.04-0.01,0.09-0.02,0.15-0.02
							c0.24-0.08,0.62-0.34,1.04-0.7l0.16-0.14l0.08-0.07l0.27-0.36l0.72-0.95c0.46-0.65,0.92-1.3,1.35-1.96
							c0.88-1.32,1.71-2.66,2.54-3.96c1.66-2.62,3.3-5.1,4.95-7.27c1.65-2.18,3.3-4.02,4.92-5.65c1.63-1.6,3.23-3,4.89-4.22
							c1.66-1.22,3.39-2.3,5.34-3.16c1.95-0.84,4.2-1.43,6.6-1.48c2.4-0.05,4.85,0.41,7.13,1.17c1.9,0.71,3.68,1.8,5.32,3.11
							c1.69,1.29,3.06,2.91,3.85,4.61c0.79,1.76,1.31,3.41,1.69,5.14c0.34,1.73,0.69,3.44,1.02,5.14c0.7,2.61,1.03,5.93,0.9,9.79
							c-0.05,1.91-0.23,3.96-0.4,5.98c-0.08,1.01-0.17,2.03-0.23,3.02c-0.04,0.97-0.11,2.06-0.07,2.69l0.01,0.55l0,0.28l0.01,0.1
							c0.01,0.12,0.02,0.24,0.01,0.37c0,0.13,0.02,0.15,0.01,0.25l-0.02,0.18c0,0.02-0.01,0.04-0.02,0.06l-0.02,0.04
							c0.01-0.01-0.04,0.05,0.02-0.01l0.15-0.16l1.16-1.22c0.16-0.31,0.48-0.13,0.75-0.09l0.83,0.18c0.56,0.12,1.1,0.25,1.63,0.4
							l1.59,0.43l1.42,0.45l2.57,0.81c0.44,0.14,0.77,0.23,1.12,0.32l1.06,0.28c0.38,0.1,0.68,0.15,0.99,0.2l0.95,0.15
							c0.25-0.02,0.54-0.03,0.86-0.05c0.31-0.04,0.63-0.1,0.98-0.15c0.69-0.11,1.44-0.22,2.16-0.3c1.37-0.24,2.48-0.44,2.78-0.36
							c0.73,0.21,1.67,0.32,2.79,0.65c1.11,0.33,2.47,0.8,3.75,2.06c0.64,0.63,1.19,1.5,1.55,2.45c0.37,0.95,0.55,1.95,0.65,2.91
							c0.16,1.93-0.02,3.75-0.31,5.52c-0.63,3.53-1.77,6.91-3.47,10.34c-1.69,3.43-4.04,6.88-7.14,10.22
							c-2.58,2.56-5.12,4.8-7.95,6.85c-2.83,2.04-5.97,3.91-9.79,5.48c0,0.65-0.5,1.15-1.28,1.6c-0.77,0.47-1.78,0.94-2.87,1.51
							c-0.39,0.14-0.9,0.3-1.5,0.49c-0.62,0.15-1.34,0.33-2.14,0.53c-0.81,0.21-1.67,0.37-2.61,0.54c-0.23,0.04-0.47,0.08-0.72,0.12
							c-0.24,0.04-0.51,0.09-0.68,0.1c-0.39,0.04-0.78,0.09-1.19,0.13c-3.25,0.35-7.22,0.43-11.05,0.01
							c-3.84-0.39-7.52-1.24-10.28-2.2c-2.77-0.95-4.65-1.95-5.12-2.45c-0.23-0.3,2.71,0.43,7.34,0.84
							c4.62,0.42,10.95,0.28,16.98-1.04c0.75-0.15,1.5-0.35,2.24-0.52c0.84-0.21,1.76-0.47,2.62-0.72c0.88-0.29,1.76-0.55,2.61-0.85
							c0.84-0.32,1.69-0.6,2.49-0.94c3.22-1.3,6.02-2.77,8.26-4.12c4.46-2.74,6.72-4.89,6.22-4.91c-0.45,0.06-2.42,1.42-5.48,3.13
							c-3.06,1.71-7.25,3.77-11.83,5.26c-1.13,0.37-2.32,0.72-3.45,1.02c-0.57,0.14-1.13,0.28-1.7,0.42
							c-0.49,0.1-0.97,0.21-1.44,0.31c-1.9,0.39-3.74,0.67-5.37,0.82c-3.27,0.32-5.73,0.27-6.42,0.15
							c3.61-0.33,6.97-1.03,10.04-1.93c2.89-0.86,6.37-2.11,9.13-3.48c5.63-2.75,9.7-5.82,12.87-8.62c3.16-2.82,5.44-5.43,7.21-7.77
							c0.88-1.17,1.65-2.27,2.3-3.31c0.35-0.52,0.59-1.02,0.78-1.51c0.21-0.48,0.39-0.95,0.54-1.4c1.23-3.59,0.83-5.99,0.19-7.19
							c-0.31-0.61-0.65-0.91-0.85-0.98c-0.21-0.07-0.26,0.09-0.26,0.45c0.01,0.36,0.06,0.93,0.04,1.67
							c-0.03,0.73-0.14,1.62-0.38,2.61c-0.47,1.98-1.46,4.38-3.03,6.93c-1.58,2.55-3.67,5.3-6.45,7.9
							c-2.77,2.59-5.96,5.09-9.39,7.28c-2.48,0.95-5.16,2.48-8.88,3.93c-0.47,0.17-0.94,0.35-1.42,0.53
							c-0.46,0.15-0.92,0.31-1.4,0.47c-0.96,0.3-1.96,0.6-3.02,0.83c-2.12,0.49-4.46,0.83-6.98,0.85c1.5-0.27,3.36-0.77,5.27-1.53
							c1.91-0.75,3.87-1.7,5.64-2.71c3.68-2.07,6.01-4.17,7.05-4.72c2.3-1.44,3.58-2.67,4.49-3.66c0.89-1.02,1.41-1.81,1.97-2.59
							c0.55-0.79,1.16-1.53,2.11-2.5c0.95-0.98,2.27-2.15,4.15-4c1.53-1.52,2.84-3.51,3.36-5.73c0.25-1.11,0.32-2.31-0.15-3.49
							c-0.24-0.59-0.66-1.16-1.3-1.58c-0.64-0.42-1.46-0.62-2.28-0.69c-1.66-0.13-3.3,0.19-4.79,0.55c-1.5,0.38-2.86,0.85-4.1,1.22
							c-2.5,0.73-4.53,1.08-5.96,0.97c1.1-0.25,2.69-0.57,4.69-1.18c2-0.56,4.41-1.39,7-2.28c2.57-0.9,5.39-1.74,7.94-1.91
							c1.26-0.08,2.47,0.01,3.38,0.43c0.91,0.42,1.45,1.17,1.5,1.97c0.11-0.93-0.19-1.71-0.7-2.19c-0.51-0.49-1.18-0.72-1.87-0.84
							c-1.4-0.21-2.9,0.01-4.38,0.35c-2.97,0.69-5.86,1.89-8.6,2.67c-2.73,0.82-5.29,1.56-7.54,1.54c-0.27-0.01-0.55-0.02-0.83-0.04
							c-0.25-0.05-0.51-0.11-0.78-0.16c-0.26-0.05-0.48-0.18-0.72-0.27l-0.17-0.08l-0.04-0.02l-0.12-0.1l-0.24-0.2
							c-0.31-0.27-0.63-0.56-0.94-0.86c-1.23-1.19-2.27-2.75-2.98-4.29c-0.21-0.4-0.35-0.79-0.48-1.17
							c-0.13-0.39-0.26-0.78-0.4-1.18l-0.09-0.3c-0.03-0.1-0.03-0.13-0.05-0.19l-0.07-0.34c-0.04-0.23-0.09-0.46-0.13-0.7
							c-0.2-0.97-0.51-1.91-0.89-2.78c0.27-1.19,0.59-2.38,1.01-3.99c0.21-2.11,0.32-4.05,0.07-5.8c-0.14-0.87-0.38-1.7-0.88-2.4
							c-0.48-0.73-1.37-1.09-2.16-1.46c-1.6-0.7-3.39-1.2-5.19-0.83c-1.81,0.37-3.2,1.59-4.36,2.71c0.4-0.66,0.81,1.41,1.2,1.36
							c1,0.11,2.1,0.09,3.27,0.32c1.15,0.21,2.26,0.54,3.36,0.91c0.54,0.2,1.16,0.37,1.56,0.76c0.41,0.38,0.65,0.87,0.81,1.42
							c0.3,1.1,0.27,2.47,0.01,4.07c-0.22,0.73,0.12,0.98,0.51,1.35c0.38,0.36,0.81,0.85,0.8,1.56c0.01,0.69-0.01,1.41-0.06,2.12
							l-0.02,0.52c-0.01,0.18-0.04,0.31,0,0.63l0.05,0.82c0.01,0.08,0,0.12,0.02,0.22l0.09,0.39l0.18,0.78
							c0.14,0.54,0.21,1.01,0.44,1.59c0.2,0.56,0.42,1.12,0.64,1.68c0.2,0.55,0.58,1.15,0.89,1.72c0.34,0.57,0.66,1.16,1.1,1.67
							c0.42,0.53,0.86,1.05,1.31,1.56l0.17,0.19l0.03,0.05l0.06,0.09l0.12,0.18c0.14,0.25,0.33,0.41,0.5,0.59
							c-0.32-0.05-0.65-0.06-0.92-0.17l-0.21-0.07c-0.09-0.04-0.05,0.05-0.42-0.29c-0.56-0.48-1.12-0.99-1.66-1.52
							c-2.07-2.19-3.58-4.92-4.33-7.16l-0.28-0.79l-0.13-0.4l-0.23-0.74c-0.07-0.24-0.15-0.48-0.19-0.72
							c-0.11-0.48-0.15-0.96-0.17-1.45c-0.09-1.91,0.29-3.95-0.04-5.62c-0.12-0.26-0.59-0.11-1.12,0.28c-0.56,0.39-1.17,1-1.64,1.5
							c0.38,0.54,0.41,1.25,0.42,1.85c0,0.62-0.04,1.19-0.07,1.74c0.09,0.83,0.38,1.57,1.12,2.78l0.07,0.11
							c0.01,0.02,0.02,0.03,0.04,0.07l0.07,0.17l0.27,0.68l0.52,1.32c0.23,0.57,0.46,1.12,0.73,1.68c0.31,0.61,0.64,1.21,0.99,1.8
							c0.18,0.3,0.34,0.58,0.53,0.88l0.66,0.91c0.46,0.6,0.92,1.19,1.42,1.75c0.53,0.54,1.08,1.06,1.65,1.55l0.43,0.37
							c0.12,0.1,0.35,0.3,0.32,0.26l0.17,0.05l0.34,0.09c0.25,0.02,0.49,0.09,0.77,0.09c0.54,0.03,1.11,0,1.7-0.08
							c1.19-0.13,2.42-0.46,3.6-0.78c1.17-0.34,2.29-0.71,3.25-0.85c0.96-0.14,1.79-0.09,2.17,0.38c0.42,0.46,0.1,1.46-0.86,2.28
							c0.2,0.09,0.41,0.18,0.77,0.39c-0.31,0.14-0.51,0.27-0.65,0.4c-0.11,0.88-1.11,2.02-3.23,2.78c0.61-0.62,1.19-1.3,1.63-2.07
							c-0.81-0.52-1.57-1.08-2.69-1.39c-1.13-0.29-2.32-0.09-3.22,0.1c-1.83,0.42-2.97,0.99-4.09,0.98
							c-0.27,0.01-0.54-0.01-0.8-0.08c-0.13-0.02-0.24-0.08-0.36-0.13c-0.06-0.02-0.11-0.06-0.16-0.1l-0.08-0.05l-0.04-0.03
							l-0.42-0.39c-2.54-2.25-4.51-5.29-5.65-7.93c-0.17-0.36-0.29-0.67-0.4-0.98l-0.34-0.94l-0.32-0.94l-0.15-0.47
							c-0.05-0.15-0.04-0.14-0.06-0.22l-0.27-1.1c-0.22-0.94-0.23-1.86-0.57-2.26c-0.29-0.01,0.15-0.87,0.49-2.01
							c0.37-1.1,0.48-2.49-0.21-2.19c-0.8,0.17-1.46,0.26-2.09,0.37c-0.63,0.1-1.19,0.34-1.62,0.56c-0.86,0.45-1.54,0.65-2.84,1.24
							c-0.32,0.21-0.68,0.45-1.07,0.73l-0.62,0.44l-0.34,0.24l-0.18,0.12l-0.01,0.01l0.06-0.08c0.08-0.11-0.01,0-0.02,0.01
							l-0.15,0.17l-0.3,0.33c-1.61,1.75-3.56,3.67-6.38,5.48c-1.39,0.89-3.1,1.75-4.99,2.36c-1.89,0.62-4.02,0.97-6.06,0.93
							c-2.03-0.03-4-0.38-5.63-0.93c-0.87-0.26-1.57-0.59-2.33-0.91l-1.02-0.52l-0.5-0.27c-0.15-0.08-0.17-0.11-0.26-0.16
							c-1.21-0.75-2.44-1.61-3.65-2.29l-1.83-1.06l-1.53-0.86l-1.35-0.74c-0.39-0.2-0.79-0.44-1.21-0.63
							c-1.67-0.8-3.65-1.45-5.76-1.48c-1.06-0.04-2.12,0.16-3.14,0.5c-1.01,0.38-1.92,0.97-2.71,1.71c-1.57,1.5-2.61,3.54-3.29,5.8
							c-0.35,1.13-0.62,2.33-0.8,3.59c-0.09,0.62-0.17,1.27-0.23,1.94c-0.05,0.75-0.09,1.45-0.09,2.26l0.03,0.86
							c0.09,1.25-0.15,2.51-0.41,3.71c-0.14,0.6-0.3,1.21-0.46,1.77l-0.5,1.61c-0.69,2.11-1.44,4.14-2.19,6.16
							c-0.74,2.02-1.48,4.03-2.11,6.08c-0.31,1.03-0.6,2.06-0.75,3.15c-0.05,0.55-0.14,1.11,0.11,1.79c0.11,0.33,0.5,0.76,1,0.83
							c0.47,0.08,0.84-0.04,1.17-0.14c0.63-0.23,1.14-0.55,1.62-0.87c0.47-0.31,0.87-0.59,1.26-0.89c0.78-0.59,1.5-1.2,2.19-1.79
							c1.34-1.2,2.64-2.32,4.23-2.93c0.78-0.32,1.65-0.45,2.52-0.42c0.88,0.09,1.76,0.35,2.56,0.81c1.62,0.89,2.89,2.29,4.02,3.58
							c0.59,0.38,1.17,0.79,1.75,1.22c-0.14-0.46-0.28-0.91-0.44-1.37c0.48,0.68,0.92,1.38,1.32,2.03l1.18,0.92l0.61,0.48l0.87,0.67
							c0.56,0.45,1.21,0.9,1.82,1.37c0.63,0.46,1.35,0.94,2.03,1.42c2.9,1.9,6.08,3.52,9.62,4.58c1.45,0.6,0.14,0.53-1.85,0.3
							c-1.98-0.31-4.53-1.06-5.78-1.1c0.38,0.2,0.77,0.4,1.13,0.59c0.37,0.16,0.72,0.31,1.02,0.44c0.6,0.25,1,0.42,1,0.42
							s-0.46,0.47-0.93,0.95c0.69,0.08,1.19,0.33,1.65,0.61c0.45,0.3,0.85,0.67,1.31,0.98c-1.12-0.23-2.24-0.42-3.33-0.79
							c-0.54-0.17-1.09-0.33-1.63-0.52l-1.59-0.64c-1.06-0.42-2.08-0.97-3.09-1.49l-1.39-0.81l-0.69-0.41l-0.59-0.39l-1.18-0.78
							l-1.06-0.75l-0.76-0.55l-0.41-0.3l-1.6-1.23c-1.07-0.79-2.19-1.64-3.55-1.81c-0.67-0.07-1.36,0.1-1.93,0.45
							c-0.56,0.37-1.08,0.81-1.49,1.34c0.56,0.55,1.02,0.54,1.45,0.41c0.43-0.13,0.87-0.37,1.21-0.29c0.68-0.44,1.48-0.43,2.16-0.16
							c0.69,0.27,1.3,0.8,1.76,1.48c0.39,0.25,0.77,0.57,1.13,0.91c0.18,0.17,0.35,0.34,0.51,0.52l1.65,1.38
							c0.68,0.52,1.27,1.02,2.04,1.57l1.2,0.84c0.39,0.28,0.81,0.56,1.28,0.84c0.9,0.55,1.81,1.11,2.77,1.58
							c0.95,0.5,1.91,0.96,2.92,1.34c3.97,1.62,8.34,2.43,12.7,2.18c4.34-0.21,8.7-1.48,12.54-3.33c1.29-0.49,2.68-1,3.92-1.51
							c1.21-0.51,2.41-1.01,3.59-1.51c0.57-0.15,0.85,0,0.9,0.34c0.02,0.17-0.01,0.39-0.1,0.64c-0.16,0.3-0.43,0.67-0.75,1.06
							c-0.67,0.79-1.49,1.69-2.66,2.57c-0.61,0.45-1.27,0.88-1.94,1.28C344.03,739.52,343.42,739.87,342.52,740.23z M336.06,680.91
							c-1.75,1.32-3.88,2.54-6.4,3.12c-1.26,0.28-2.59,0.37-3.85,0.24c-1.27-0.13-2.45-0.52-3.48-1c-0.76-0.23-1.45-0.52-2.11-0.86
							c-0.31-0.17-0.67-0.36-0.92-0.51l-0.74-0.45c-1.21-0.77-2.61-1.41-4.15-1.75l-1.98-1.18l-1.97-1.05
							c-0.67-0.37-1.33-0.67-2.01-0.98c-0.68-0.3-1.37-0.65-2.09-0.89c-2.85-1.09-6.13-1.99-9.46-1.73c0.88,0.02,1.8,0.34,2.66,0.52
							c0.87,0.24,1.71,0.56,2.51,0.83c0.77,0.33,1.55,0.67,2.34,1.01c0.72,0.37,1.44,0.74,2.17,1.12c1.41,0.79,2.66,1.51,4.11,2.37
							c0.35,0.2,0.71,0.39,1.06,0.59c0.38,0.22,0.77,0.44,1.16,0.67c0.78,0.46,1.59,0.86,2.42,1.31c-0.95-0.43-1.9-0.86-2.84-1.28
							l-0.7-0.33l-0.65-0.27l-1.29-0.55c-0.89-0.41-1.63-0.66-2.44-1c-0.8-0.35-1.64-0.57-2.48-0.88c-1.7-0.51-3.5-0.98-5.39-1.09
							c-1.88-0.14-3.87,0-5.71,0.65c-1.84,0.65-3.48,1.78-4.81,3.21c-1.35,1.43-2.33,3.19-3.19,5.07c-0.84,1.89-1.49,3.96-1.97,6.19
							c-0.47,2.22-0.74,4.7-0.88,6.82l-0.07,0.59c-0.05,0.86-0.36,1.72-0.66,2.52l-0.49,1.21l-0.56,1.44
							c-0.73,2.61-1.58,5.35-2.35,8.27c-0.38,1.47-0.76,2.97-1.06,4.66c-0.15,0.85-0.29,1.74-0.36,2.83
							c-0.03,0.55-0.05,1.14,0.01,1.94c0.01,0.19,0.03,0.39,0.07,0.64c0.04,0.25,0.06,0.45,0.14,0.77c0.07,0.31,0.12,0.55,0.27,0.97
							c0.07,0.19,0.14,0.38,0.22,0.57c0.09,0.21,0.23,0.49,0.35,0.72c0.1,0.17,0.19,0.33,0.3,0.5c0.15,0.21,0.3,0.43,0.47,0.63
							c0.17,0.2,0.34,0.4,0.52,0.58c0.23,0.22,0.48,0.44,0.74,0.64c0.5,0.39,1.1,0.74,1.78,1c0.68,0.27,1.27,0.39,1.91,0.47
							c0.69,0.08,1.1,0.05,1.6,0c0.23-0.02,0.51-0.06,0.7-0.1l0.51-0.12c0.76-0.2,1.14-0.39,1.62-0.6c0.39-0.19,0.7-0.38,1-0.57
							c0.24-0.16,0.51-0.34,0.72-0.5l0.58-0.46l0.48-0.42c0.19-0.17,0.23-0.22,0.34-0.32l0.25-0.25l0.34-0.38
							c0.22-0.25,0.43-0.52,0.64-0.79c0.83-1.07,1.5-2.32,2.42-3.4c-0.81,0.49-1.51,1.15-2.28,1.8c-0.39,0.33-0.78,0.66-1.21,0.98
							l-0.65,0.49l-0.82,0.58c-0.46,0.33-0.89,0.66-1.56,1.04c-0.15,0.09-0.32,0.18-0.54,0.29c-0.22,0.11-0.37,0.19-0.67,0.31
							c-0.3,0.11-0.48,0.2-0.91,0.31c-0.19,0.05-0.38,0.09-0.58,0.13c-0.19,0.04-0.51,0.07-0.76,0.08
							c-0.46,0.04-1.22-0.03-1.86-0.21c-0.71-0.22-1.4-0.58-1.91-1.01c-0.58-0.48-0.85-0.86-1.17-1.33
							c-0.11-0.18-0.2-0.37-0.29-0.55l-0.13-0.28l-0.08-0.23c-0.41-1.23-0.37-1.91-0.38-2.56c0.04-1.21,0.23-2.1,0.42-2.96
							c0.2-0.86,0.42-1.65,0.66-2.43c0.95-3.08,2.05-5.92,3.07-8.77c0.51-1.42,1.01-2.84,1.45-4.24c0.4-1.33,0.86-2.76,0.8-4.2
							l0.01-0.7c0.02-2.45,0.25-4.94,0.69-7.21c0.43-2.29,1.12-4.43,2.09-6.34c0.97-1.9,2.26-3.61,3.99-4.77
							c1.71-1.18,3.77-1.77,5.81-1.8c2.04-0.03,4.01,0.36,5.79,0.97c0.89,0.31,1.75,0.66,2.56,1.03l1.18,0.59l0.57,0.29l0.65,0.36
							c1.61,0.88,3.59,2.04,5.45,3.23l1.4,0.92l0.7,0.46l0.35,0.23c0.04,0.03,0.14,0.09,0.25,0.15l0.32,0.18
							c1.68,0.94,3.78,1.77,6.26,2.06c2.46,0.3,5.24-0.07,7.51-0.96c2.3-0.87,4.16-2.09,5.67-3.3c1.52-1.22,2.75-2.45,3.83-3.65
							l0.05-0.06l-0.06,0.09l0.04-0.03l0.09-0.07l0.17-0.14l0.33-0.29l0.62-0.57c1.58-1.5,2.71-2.76,3.81-3.69
							c0.55-0.47,1.09-0.86,1.67-1.15c0.58-0.28,1.22-0.47,1.94-0.36c0.72,0.09,1.45,0.55,2.03,1.1c0.58,0.57,1.09,1.18,1.49,1.83
							c-0.08-1.05-0.36-2.07-0.76-3.05c-0.41-0.96-0.99-1.87-1.7-2.46c-0.71-0.6-1.48-0.85-2.17-0.86c-0.7-0.01-1.34,0.19-1.98,0.51
							c-1.27,0.65-2.5,1.77-3.97,3.2c-0.74,0.72-1.54,1.52-2.47,2.38c-0.46,0.43-0.96,0.87-1.51,1.33c-0.13,0.1-0.29,0.25-0.4,0.32
							l-0.7,0.68C337.11,680.01,336.61,680.46,336.06,680.91z M338.26,675.21c2.93-4.22,4.84-8.7,7.8-12.85
							c1.03-1.23,2.2-2.38,3.65-3.15c1.43-0.79,3.2-1.02,4.83-0.62c1.64,0.39,3.13,1.21,4.48,2.12c0.33,0.23,0.68,0.46,1,0.7
							c0.33,0.23,0.65,0.48,0.93,0.76c0.56,0.56,0.96,1.25,1.21,1.96c0.52,1.42,0.67,2.85,0.8,4.2c0.11,1.35,0.22,2.65,0.32,3.89
							c0.25,2.49,0.67,4.81,1.75,7.03c-0.52-3.43-0.43-6.67-0.5-9.76c-0.04-1.55-0.09-3.06-0.3-4.54c-0.23-1.47-0.55-2.97-1.5-4.2
							c-0.46-0.62-1.14-1.07-1.84-1.46c-0.69-0.4-1.41-0.76-2.14-1.09c-1.47-0.63-3.05-1.08-4.69-1.06
							c-1.64,0.01-3.28,0.64-4.61,1.64c-1.34,1-2.43,2.27-3.38,3.59c1.85-2.23,3.36-3.03,3.89-3.32c0.56-0.27,0.11-0.23-0.98,0.42
							c-1.09,0.65-2.68,2.13-4.28,4.5c-1.64,2.35-3.3,5.56-5.39,9.2C339.2,673.63,338.8,674.35,338.26,675.21z"/>
						<path class="st2" d="M285.43,722.05c0.75-0.16,1.64-0.69,2.43-1.2c0.79-0.5,1.53-1.02,2.22-1.52c0.7-0.5,1.32-1.01,2-1.45
							c0.33-0.22,0.65-0.44,0.98-0.64l1.04-0.52c1.41-0.61,3.03-0.86,4.64-0.31c1.61,0.57,2.98,1.8,4.07,3.07
							c-0.76-1.55-1.68-3.1-2.92-4.32c-1.22-1.22-2.79-2.11-4.45-2.14c-2.2,0.25-4.08,1.48-5.95,2.98
							c-0.94,0.76-1.93,1.59-2.95,2.47c-0.5,0.41-1.08,0.93-1.55,1.24c-0.21,0.13-0.39,0.22-0.55,0.29
							c-0.08,0.04-0.13,0.03-0.19,0.05c-0.02-0.01-0.02-0.02-0.03-0.02l0.18,0.37c0.07,0.11,0.13,0.22,0.18,0.34
							c0.47,0.99,0.45,1.68,0.4,1.7c-0.05,0.01,0.36-0.45,1.37-0.76c0.22-0.06,0.55-0.18,0.83-0.23c0.15-0.04,0.28-0.04,0.45-0.09
							l0.02-0.02c0.02-0.01,0.03-0.08,0.05-0.13l0.12-0.54c0.19-0.86,0.5-1.95,0.84-3.02c0.7-2.16,1.56-4.4,2.51-6.62
							c0.74-1.73,1.48-3.5,2.16-5.45c0.33-0.9,0.7-2.25,0.96-3.49c0.27-1.26,0.45-2.58,0.4-3.88c-0.01-0.34-0.02-0.68-0.04-1.03
							c0-0.29,0.01-0.35,0.03-0.53l0.04-0.45l0.1-0.9c0.09-0.52,0.18-0.91,0.29-1.31c0.22-0.8,0.47-1.54,0.76-2.23
							c0.59-1.37,1.31-2.55,2.27-3.42c0.94-0.88,2.16-1.43,3.42-1.46c1.25-0.06,2.44,0.27,3.43,0.71c0.5,0.22,0.96,0.45,1.38,0.71
							l0.31,0.19l0.15,0.09l0.07,0.05l0.14,0.07l1.11,0.58l3.07,1.58l1.68,0.95l0.84,0.47l0.42,0.23l0.27,0.14l0.56,0.27l1.13,0.52
							c0.39,0.17,0.83,0.33,1.25,0.49c0.81,0.32,1.79,0.59,2.74,0.83c1.99,0.44,4.18,0.72,6.51,0.55c2.29-0.15,4.63-0.66,6.65-1.45
							c2.01-0.78,3.81-1.78,5.26-2.79c2.93-2.06,4.87-4.15,6.45-6.02l0.57-0.7l0.07-0.09l0.04-0.04l0.02-0.02l-0.04,0.05l-0.09,0.11
							c-0.01,0.01,0,0,0,0l0.01-0.01l0.04-0.04l0.17-0.15l0.31-0.3c0.3-0.09,0.67-0.27,0.63-1.15c-0.47,0.2-1.02,0.56-1.75,1.01
							l-0.14,0.09c-0.03,0.04,0.06-0.09,0.11-0.16l-0.08,0.09l-0.16,0.18l-0.32,0.36c-0.41,0.47-0.91,0.99-1.37,1.48
							c-1,1.02-2.11,2.06-3.45,3.1c-1.37,1.05-2.96,2.1-4.88,3.01c-1.9,0.91-4.19,1.62-6.54,1.91c-2.34,0.3-4.75,0.18-6.8-0.26
							c-2.07-0.43-3.9-1.11-5.39-1.87l-0.57-0.29c-0.18-0.09-0.43-0.22-0.45-0.24l-0.46-0.28l-0.92-0.56
							c-0.61-0.37-1.23-0.77-1.83-1.11c-1.11-0.62-2.22-1.23-3.33-1.85l-0.67-0.37l-0.34-0.19l-0.24-0.14l-0.92-0.53
							c-1.28-0.66-2.8-1.27-4.5-1.4c-0.84-0.05-1.71,0-2.55,0.24c-0.82,0.26-1.61,0.66-2.29,1.22c-1.34,1.13-2.3,2.72-2.97,4.55
							c-0.34,0.92-0.62,1.9-0.84,2.95c-0.11,0.52-0.2,1.06-0.28,1.65l-0.09,1.05l-0.03,0.53c-0.01,0.2-0.02,0.29-0.02,0.59
							l0.04,0.95c0.08,1.39-0.17,2.8-0.47,4.14c-0.15,0.66-0.33,1.37-0.51,1.97c-0.18,0.57-0.36,1.13-0.55,1.67
							c-0.76,2.17-1.58,4.21-2.39,6.23c-0.81,2.02-1.63,4.01-2.33,5.97c-0.35,0.97-0.67,1.97-0.85,2.84
							c-0.05,0.22-0.08,0.42-0.1,0.58c-0.01,0.08-0.02,0.15-0.03,0.19C285.46,722.05,285.45,722.05,285.43,722.05l-0.14,0.11
							c-0.04,0.02-0.09,0.05-0.13,0.08c-0.04,0.03-0.09,0.08-0.11,0.1c-0.02,0.01-0.03,0.03-0.05,0.05
							c-0.04,0.07-0.02,0.03-0.03,0.03c-0.01,0.03,0.03-0.1,0.02-0.14c0-0.01,0-0.31-0.01-0.24
							C285.04,722.11,285.23,722.12,285.43,722.05z"/>
						<path class="st2" d="M348.6,686.61c0.46-0.58,0.86-0.59,0.75-0.28c1.2-0.74,1.58-2.03,1.74-2.83
							c-0.09-0.35-0.19-0.7-0.57-0.89c-0.39-0.15-0.76-0.3-1.17-0.35c0.22,1.14,0.09,2.28-0.12,3.02
							C349,686.07,348.68,686.49,348.6,686.61z"/>
						<path class="st2" d="M346.72,682.7c0.2-0.09,0.38-0.15,0.56-0.16c0.4-0.04,0.7-0.08,1-0.15c0.3-0.07,0.65-0.18,1.06-0.12
							c-0.23-1.2-0.76-2.14-1.33-2.61c-0.58-0.49-1.26-0.56-2.04-0.23C346.53,681.01,346.69,682.08,346.72,682.7z"/>
					</g>
				</g>
			</g>
		</g>
	</g>
</g>
<g>
	<path class="st0" d="M291.08,576.86"/>
	<g>
		<path class="st3" d="M291.08,576.86"/>
	</g>
</g>
<g>
	<path class="st0" d="M940.33,693.78c34.13-36.57,65.47,2.54,43.65,22.88c-21.82,20.33,55.57,28.97,19.1,61
		c0,0-32.74,17.79-21.82-2.54s-30.01-53.38-43.65-27.96c-13.64,25.42-60.02-22.88-19.1-33.04
		C959.43,703.95,940.33,693.78,940.33,693.78z"/>
	<g>
		<g>
			<g>
				<g class="st1">
					<g>
						<path class="st2" d="M963.4,694.73c0.35,1.83,0.53,3.67,0.45,5.57c-0.03,0.95-0.11,1.87-0.26,2.75
							c-0.14,0.89-0.33,1.79-0.55,2.64c-0.23,0.78-0.49,1.56-0.78,2.32c-0.15,0.38-0.3,0.76-0.46,1.13l-0.47,0.95
							c-0.32,0.63-0.66,1.25-1.02,1.85c-0.19,0.32-0.35,0.56-0.51,0.8l-0.51,0.72c-0.35,0.48-0.7,0.95-1.07,1.41
							c-0.35,0.43-0.66,0.75-0.99,1.12c-0.66,0.71-1.38,1.46-1.95,1.94c-0.6,0.53-1.25,1.1-1.83,1.55l-1.67,1.22
							c-0.59,0.43-1.06,0.7-1.57,1.02c-0.5,0.31-1.03,0.63-1.52,0.92c-0.92,0.5-1.89,1.03-2.78,1.47c-0.86,0.41-1.74,0.83-2.59,1.21
							c-0.82,0.35-1.63,0.69-2.44,1.03c-3.16,1.25-6.13,2.31-8.99,3.24c-1.45,0.5-2.83,0.89-4.25,1.36
							c-1.35,0.41-2.71,0.83-4.07,1.24l-0.4,0.11c-0.04,0.01-0.01,0.01-0.02,0.01l-0.01,0.01c-0.01,0.01-0.02,0.01-0.03,0.02
							c-0.02,0-0.05,0-0.08-0.01c-0.07-0.03-0.18-0.08-0.34-0.13c-0.32-0.1-0.87-0.14-1.41,0.13c-0.52,0.26-0.94,0.82-1.03,1.56
							c-0.05,0.37-0.01,0.77,0.11,1.19c0.04,0.11,0.06,0.18,0.13,0.33c0.16,0.21,0.28,0.42,0.47,0.64c0.34,0.45,0.73,0.86,1.13,1.26
							c0.77,0.8,1.59,1.47,2.31,1.94c0.72,0.47,1.35,0.75,1.64,0.85c0.09,0.05,0.11,0.04,0.16,0.08c0.01,0,0.01,0.01,0.02,0.02
							c0.01-0.04,0.01,0.14,0,0.23l0.01,0.33c0.04,0.49,0.04,0.77,0.12,1.16c0.03,0.25,0.12,0.58,0.15,0.7
							c0.08,0.23,0.07,0.22,0.11,0.32c-0.03-0.05,0,0-0.1-0.18c-0.04-0.05-0.22-0.35-0.37-0.51c-0.1-0.13-0.23-0.29-0.35-0.42
							l-0.19-0.19l-0.26-0.27l-0.27-0.25l-0.06-0.06l0.01,0.01l0.02,0.02c0.03,0,0.06,0,0.09,0.01c0.08,0.04,0.16-0.06,0.28-0.08
							c0.01,0,0.01,0,0.02-0.01l0.06-0.09l0.13-0.17l0.25-0.34l0.56-0.77c0.52-0.73,1.06-1.44,1.6-2.15l0.82-1.05
							c0.29-0.33,0.6-0.65,0.91-0.98c0.61-0.64,1.24-1.28,1.87-1.9c0.67-0.58,1.37-1.13,2.06-1.68c0.35-0.27,0.69-0.55,1.06-0.8
							l1.13-0.71c0.77-0.45,1.49-0.96,2.31-1.31c0.8-0.38,1.61-0.74,2.42-1.09c1.68-0.57,3.37-1.12,5.14-1.39
							c3.5-0.61,7.13-0.64,10.67,0.02c0.89,0.12,1.76,0.35,2.64,0.56c0.87,0.22,1.75,0.43,2.6,0.74c0.85,0.29,1.71,0.59,2.55,0.91
							l2.17,0.97c2.8,1.36,5.38,2.88,7.75,4.64c1.23,0.84,2.33,1.81,3.47,2.73c1.09,0.99,2.2,1.94,3.22,3.01
							c2.09,2.07,4.01,4.36,5.77,6.84c0.64,1.17,1.91,3.46,2.98,5.38c1.14,1.9,2.24,3.54,3.36,2.66l0.47,1.46
							c0.14,0.5,0.26,1.02,0.38,1.54l0.41,1.72c0.1,0.56,0.17,1.12,0.25,1.68c0.15,1.12,0.3,2.23,0.3,3.36
							c0.03,1.12,0.07,2.23-0.06,3.34c-0.1,1.11-0.18,2.21-0.44,3.28c-0.23,1.08-0.43,2.15-0.83,3.18c-0.62,2.1-1.7,4.01-2.7,5.9
							l-0.85,1.34l-0.25,0.4c-0.04,0.06-0.07,0.11-0.09,0.12l-0.03,0.03l-0.02,0.02c-0.03-0.01,0.09,0.01-0.16-0.05
							c-2.87-0.67-5.13-0.83-6.46-0.61c-0.39,0.08-0.55,0.09-0.82,0.2c-0.14,0.03-0.35,0.15-0.37,0.16
							c-0.14,0.08-0.03,0.06,0.2-0.29c0.23-0.35,0.45-0.88,0.69-1.76l0.15-0.67c0.05-0.24,0.09-0.49,0.11-0.73
							c0.11-0.58,0.13-1.09,0.18-1.74c0.05-0.65,0.03-1.27,0.05-1.99c0,0.01,0.01,0.02,0.06,0.03c0.06,0.02,0.2,0.03,0.37,0.02
							c0.69-0.02,1.8-0.22,2.95-0.54c2.34-0.64,4.92-1.67,7.42-2.88c0.63-0.3,1.25-0.62,1.87-0.95l0.46-0.25l0.26-0.15l0.48-0.3
							l0.47-0.31c0.14-0.12,0.26-0.28,0.38-0.42c0.25-0.28,0.48-0.58,0.69-0.88c0.39-0.43,0.65-0.72,0.99-1.03
							c0.31-0.32,0.67-0.62,1.01-0.96c0.69-0.65,1.43-1.37,2.05-2.24c0.62-0.86,1.1-1.86,1.24-2.92c0.13-1.05-0.08-2.14-0.62-3.05
							c-1-1.45-2.1-2.66-3.23-3.9c-0.29-0.32-0.57-0.6-0.96-1c-0.46-0.45-0.93-0.9-1.41-1.35c-0.97-0.91-2-1.84-3.06-2.77
							c-1.07-0.93-2.17-1.88-3.3-2.82l-1.72-1.43l-2.14-1.71c-3.17-2.5-6.21-5.01-8.85-7.81c-0.9-0.69-2.41-1.79-3.65-3.09
							c-1.25-1.27-2.2-2.74-2.4-3.62c-0.56-2.63-0.42-5.47,0.42-7.95c0.86-2.48,2.16-4.61,3.73-6.62c0.84-1.04,1.57-2.07,2.44-3.15
							l1.29-1.62l0.32-0.41c0.09-0.12,0.25-0.3,0.27-0.37l0.28-0.52l0.55-1.05c0.16-0.34,0.18-0.61,0.28-0.91
							c0.07-0.3,0.2-0.57,0.22-0.87l0.11-0.88c0.06-0.28,0.05-0.58,0.03-0.86l-0.01-0.85l-0.14-0.84c-0.04-0.27-0.07-0.54-0.17-0.81
							l-0.22-0.79c-0.07-0.26-0.22-0.51-0.31-0.76c-0.17-0.5-0.49-0.97-0.73-1.43c-1.09-1.83-2.69-3.22-4.24-4.24
							c-1.18-0.86-2.38-1.28-3.51-1.57c-1.15-0.27-2.23-0.48-3.58-0.62c-0.15,0.55-0.39,0.85-0.66,0.99
							c-0.28,0.18-0.59,0.15-0.97,0.44c-0.26,0.06-0.64,0-1.19,0.03c-0.56,0.07-1.23,0-2.08,0.17c-0.83,0.04-1.81,0.34-2.88,0.54
							c-1.06,0.38-2.23,0.64-3.4,1.19c-2.37,0.89-4.77,2.3-6.74,3.39c-1.94,1.16-3.44,2.07-4.07,2.13
							c-0.16,0.02,0.17-0.44,0.86-1.26c0.35-0.41,0.78-0.91,1.29-1.5c0.5-0.59,1.14-1.14,1.81-1.81c2.69-2.61,6.67-5.68,10.81-7.35
							c2.07-0.86,4.13-1.3,6.02-1.5c1.91-0.23,3.6,0.03,5.04,0.3c0.35,0.09,0.69,0.16,1.02,0.23c0.32,0.11,0.61,0.2,0.89,0.3
							c0.58,0.15,1.05,0.37,1.44,0.52c0.82,0.27,1.25,0.47,1.3,0.28c-0.02-0.13-0.3-0.47-0.86-0.83c-0.28-0.18-0.59-0.44-0.99-0.64
							c-0.4-0.2-0.85-0.41-1.34-0.65c-2-0.84-4.9-1.32-7.94-0.94c-3.04,0.33-6.16,1.52-8.56,2.76c-0.6,0.32-1.16,0.62-1.68,0.9
							c-0.51,0.29-0.96,0.61-1.36,0.85c-0.79,0.51-1.38,0.82-1.64,0.97c2.31-2.08,4.67-3.89,7.09-5.23c2.43-1.29,4.89-2.2,7.32-2.66
							c2.44-0.49,4.82-0.4,7.06-0.01c2.23,0.42,4.36,1.16,6.17,2.27c1.81,1.09,3.48,2.34,4.76,3.81c0.36,0.34,0.66,0.71,0.95,1.1
							c0.29,0.38,0.58,0.75,0.87,1.12c0.25,0.39,0.49,0.78,0.73,1.16c0.12,0.19,0.24,0.38,0.36,0.57c0.1,0.2,0.2,0.4,0.3,0.59
							c1.63,3.13,2.3,6.26,2.41,8.95c0.11,1.36-0.06,2.59-0.13,3.73c-0.1,0.56-0.2,1.09-0.29,1.6c-0.05,0.25-0.09,0.5-0.14,0.74
							c-0.07,0.23-0.13,0.46-0.2,0.68c-0.28,0.86-0.45,1.7-0.73,2.3c-0.25,0.63-0.46,1.16-0.63,1.6c-0.17,0.47-0.29,0.71-0.37,0.93
							c-0.08,0.21-0.12,0.35-0.13,0.43c-0.01,0.15,0.13,0.05,0.39-0.27c0.13-0.18,0.28-0.31,0.49-0.7c0.19-0.35,0.42-0.76,0.68-1.23
							c0.13-0.24,0.26-0.49,0.4-0.75c0.13-0.28,0.25-0.6,0.37-0.92c0.23-0.66,0.57-1.34,0.76-2.13c0.94-3.1,1.24-7.34,0.12-11.63
							c-0.63-2.12-1.49-4.26-2.76-6.2c-1.28-1.93-2.83-3.71-4.63-5.17c-1.82-1.43-3.82-2.57-5.89-3.36c-2.1-0.71-4.19-1.16-6.23-1.2
							c-2.44-0.57-5.6-0.23-8.97,1.01c-3.39,1.24-6.99,3.32-10.97,6.09c2.06-2.09,5.29-5.36,9.1-7.67c3.74-2.37,8.09-3.37,9.7-3.21
							c3.76-0.03,6.55,0.53,8.77,1.16c1.12,0.31,2.07,0.71,3.01,1.04c0.88,0.42,1.74,0.81,2.58,1.29c1.61,1.01,3.29,2.2,5.01,4.34
							c1.71,2.11,3.64,5.17,4.69,9.98c0.45,1.96,0.66,4.16,0.72,6.51c-0.07,2.34-0.26,4.87-1,7.38c-0.29,1.28-0.8,2.5-1.28,3.76
							c-0.12,0.33-0.25,0.61-0.39,0.87l-0.41,0.81l-0.41,0.82l-0.21,0.41l-0.14,0.26c-0.67,1.32-1.5,2.41-2.22,3.48
							c-0.68,1.09-1.13,2.33-0.93,3.61c0.18,1.28,1.02,2.4,1.92,3.22c1.85,1.65,3.74,2.51,5.03,3.26c-1-0.09-2.43-0.3-4.15-0.88
							c-1.69-0.57-3.78-1.51-5.32-3.15c-0.76-0.81-1.3-1.81-1.44-2.82c-0.16-1.01,0.02-2,0.4-2.89c0.36-0.91,0.98-1.67,1.6-2.41
							c0.6-0.76,1.32-1.43,1.89-2.14c-1.46,1.42-3.05,2.52-4.09,3.79c-1.04,1.26-1.59,2.65-1.5,3.98c0.09,1.33,0.77,2.52,1.69,3.43
							c0.91,0.92,2.01,1.62,3.12,2.19c2.24,1.14,4.5,1.79,6.58,2.55c1.1,0.42,1.84,0.63,3.64,1.69c1.68,0.99,3.53,2.19,5.56,3.77
							c1.56,1.11,3.53,2.25,5.78,3.63c1,1.05,2.05,2.18,3.04,3.39c1,1.2,1.94,2.52,2.87,4.02c1.62,2.24,2.99,4.6,3.85,7.12
							c0.87,2.52,1.31,5.17,1.17,7.78c-0.22,5.26-2.42,10.19-5.57,14.48c-0.78,1.08-1.62,2.13-2.51,3.14
							c-0.45,0.53-0.86,0.95-1.31,1.43c-0.47,0.5-0.94,0.99-1.44,1.45c-0.99,0.92-1.9,1.98-3.17,2.53l-1.8,0.98l-1.54,0.8
							c-3.64,1.82-7.41,3.47-11.94,4.69c1.51-0.55,2.89,0.39,4.44,0c1.92-0.42,3.71-0.94,5.43-1.55c0.86-0.3,1.69-0.63,2.51-0.97
							l1.22-0.53l0.8-0.37l0.85-0.42c0.57-0.28,1.13-0.57,1.68-0.87l0.83-0.44c0.27-0.16,0.48-0.41,0.72-0.61
							c0.92-0.86,1.86-1.67,2.75-2.58c1.65-1.65,3.32-3.61,4.74-5.62c2.86-4.02,4.88-8.57,5.49-13.46
							c0.65-4.9-0.34-10.07-2.81-14.81c-0.81-1.89-2.62-3.78-4.62-5.36c-1.98-1.59-4.2-2.95-5.67-4.22
							c-2.63-2.15-4.88-4.15-6.97-6.13c-1.02-0.98-2.02-1.94-3.03-2.91c-1.12-1.05-1.61-1.66-1.94-2.12
							c0.59,0.16,1.28,0.43,2.69,1.22c1.25,0.69,2.54,1.43,3.86,2.24c1.33,0.82,2.69,1.71,4.07,2.69c0.69,0.49,1.39,1.01,2.1,1.55
							c0.72,0.57,1.35,1.04,2.32,1.89c3.67,3.16,7.05,6.98,9.21,11.28c2.2,4.28,3.19,9.13,2.74,13.79
							c-0.12,1.93-0.21,4.08-0.45,6.18c-0.28,2.08-0.65,4.12-1.14,5.7c2.38-4.05,3.86-8.57,4.1-13.21c0.25-4.65-0.8-9.33-2.91-13.53
							c-1.9-3.65-4.7-7.05-8.03-10c-0.84-0.74-1.69-1.45-2.52-2.1l-0.63-0.48L1013,736l-0.98-0.69c-1.3-0.89-2.59-1.7-3.87-2.46
							c-2.54-1.51-5.02-2.82-7.33-4.04l-0.42-0.22l-0.3-0.14c-0.18-0.08-0.44-0.21-0.56-0.24l-0.75-0.25
							c-0.51-0.18-1.03-0.38-1.56-0.62c-1.05-0.47-2.13-1.08-2.98-1.9c-0.86-0.8-1.39-1.92-1.15-2.95c0.22-1.02,0.98-1.82,1.81-2.4
							c0.41-0.3,0.83-0.57,1.25-0.8c0.2-0.12,0.39-0.24,0.59-0.35l0.3-0.15l0.15-0.07l0.07-0.03c0.02,0,0.05-0.02,0.11-0.09
							c0.19-0.5,0.37-0.99,0.74-1.99c0.26-0.16,0.52-0.41,0.78-0.76c1.9-3.68,3.56-8.42,4.66-13.04c-0.28,3.97-1.43,7.87-3.09,11.39
							l-0.43,1.39l-0.23,0.69c-0.08,0.23-0.15,0.38-0.23,0.57c-0.3,0.74-0.62,1.48-0.95,2.22l-0.12,0.28
							c-0.04,0.09-0.02,0.07-0.03,0.11l-0.02,0.16l-0.05,0.3c-0.03,0.2-0.06,0.38-0.11,0.55c-0.17,0.67-0.41,1.18-0.4,1.82
							c-0.02,0.63,0.33,1.27,0.79,1.73c0.46,0.47,0.97,0.83,1.45,1.17c0.67,0.45,1.34,0.9,2.01,1.35c2.14,1.46,4.47,3.04,6.91,4.78
							c1.23,0.89,2.48,1.8,3.78,2.81l0.98,0.77l0.49,0.39l0.63,0.53c0.85,0.72,1.74,1.51,2.62,2.33c3.48,3.27,6.48,7,8.59,11.16
							c2.07,3.6,3.02,9.22,2.03,14.54c-0.9,5.36-3.48,10.12-5.39,13.66l-1.16,1.93c-0.39,0.65-0.86,1.25-1.29,1.87
							c-0.86,1.26-1.86,2.44-2.87,3.62c-0.5,0.56-0.94,1.03-1.48,1.6c-0.54,0.58-1.1,1.12-1.67,1.66c-1.16,1.04-2.17,2.3-3.64,2.93
							c-0.68,0.39-1.37,0.76-2.07,1.13l-1.8,0.92c-0.89,0.45-1.79,0.88-2.7,1.3c-1.83,0.84-3.72,1.62-5.73,2.35
							c-2.02,0.72-4.14,1.39-6.6,1.96c-1.24,0.28-2.56,0.54-4.09,0.73c-1.55,0.18-3.25,0.35-5.66,0.19
							c-1.17-0.08-2.6-0.26-4.31-0.72c-0.45-0.13-0.85-0.24-1.34-0.42c-0.5-0.18-0.99-0.38-1.47-0.59c-1.07-0.49-2.12-1.07-3.26-1.9
							c-2.24-1.6-4.36-4.17-5.48-6.74c-0.27-0.62-0.54-1.29-0.72-1.89c-0.18-0.58-0.33-1.17-0.45-1.76
							c-0.12-0.58-0.18-1.05-0.24-1.58l-0.07-0.77l-0.02-0.66c-0.01-0.44-0.01-0.88,0-1.31c0.02-0.37,0.05-0.74,0.09-1.1
							c0.07-0.79,0.18-1.32,0.3-1.95c0.24-1.17,0.54-2.12,0.84-2.98c0.61-1.68,1.27-2.97,1.91-4.13l0.51-0.89l0.24-0.42l0.16-0.24
							c0.72-0.64,1.34-1.53,1.6-2.59c0.13-0.52,0.22-1.11,0.22-1.66c0-0.19,0.02-0.66-0.1-1.07c-0.11-0.43-0.12-0.86-0.3-1.32
							c-1.01-3.67-3.64-7.89-6.99-11.17c-1.66-1.64-3.56-3.12-5.41-4.22l-0.35-0.22l-0.29-0.16l-0.58-0.33
							c-0.39-0.23-0.81-0.39-1.23-0.59c-0.85-0.36-1.76-0.63-2.72-0.81c-1.91-0.36-3.99-0.14-5.89,0.69
							c-0.47,0.22-0.95,0.43-1.37,0.74c-0.44,0.28-0.9,0.57-1.28,0.94c-0.4,0.35-0.83,0.69-1.17,1.12l-0.55,0.62l-0.28,0.31
							c-0.09,0.11-0.22,0.28-0.33,0.42c-0.38,0.51-1.07,1.36-1.74,2.09c-0.69,0.74-1.44,1.44-2.26,2.07
							c-1.63,1.27-3.54,2.27-5.53,2.82c-1.98,0.56-4.01,0.7-5.9,0.51c-1.89-0.19-3.65-0.68-5.27-1.34
							c-3.24-1.33-5.95-3.28-8.29-5.49c-2.32-2.21-4.27-4.75-5.8-7.44c-1.51-2.68-2.55-5.47-2.95-8.26
							c-0.4-2.78-0.12-5.59,1.06-8.01c1.16-2.42,3.22-4.3,5.49-5.46c1.13-0.6,2.31-1.04,3.49-1.35c1.17-0.33,2.35-0.52,3.48-0.65
							c0.77-0.31,1.52-0.55,2.36-0.79c-0.44-0.16-0.87-0.32-1.3-0.48l0.64,0.02c0.23,0.01,0.38,0.03,0.69,0.02
							c0.56-0.01,1.11-0.02,1.66-0.02c3.07-0.8,6.19-1.64,9.35-2.4c3.17-0.78,6.39-1.51,9.93-2.5c1.56-0.34,0.37,0.4-1.36,1.24
							c-0.88,0.46-1.86,0.86-2.75,1.33c-0.88,0.44-1.64,0.87-2.05,1.3c0.75-0.2,1.5-0.39,2.07-0.54c0.57-0.17,0.96-0.29,0.96-0.29
							s-0.05,0.66-0.1,1.33c1.04-0.75,1.98-0.34,3.02-0.37c-3.77,1.78-7.33,3.02-10.87,4.14c-1.77,0.58-3.53,1.05-5.27,1.55
							l-2.58,0.68l-1.57,0.43c-1.47,0.45-2.9,1.06-4.12,2.01c-1.22,0.93-2.18,2.26-2.5,3.79c0.95-0.13,1.44-0.54,1.87-0.97
							c0.41-0.43,0.76-0.87,1.12-1.06c0.79-1.46,2.48-2.57,4.19-2.49l0.39-0.13l0.84-0.22c0.74-0.19,1.48-0.36,2.22-0.53
							c1.48-0.32,3.06-0.71,4.6-1.02c3.14-0.72,6.36-1.41,9.77-2.38l2.6-0.81l2.72-1c1.9-0.82,3.79-1.63,6.01-3.11l0.8-0.53
							l0.87-0.67c0.59-0.49,1.12-0.86,1.77-1.52c1.21-1.16,2.49-2.58,3.7-4.63c0.3-0.52,0.59-1.05,0.86-1.59
							c0.28-0.59,0.54-1.26,0.77-1.9c0.47-1.23,0.8-2.82,0.99-4.29c0.34-3.12-0.15-6.29-1.1-8.87c-1.26-3.84-3.1-6.41-4.74-8.45
							c-0.83-1-1.67-1.9-2.51-2.71c-0.43-0.42-0.85-0.8-1.31-1.2c-0.23-0.2-0.46-0.39-0.73-0.6c-0.14-0.11-0.24-0.19-0.42-0.32
							c-0.19-0.13-0.25-0.19-0.7-0.46c-0.44-0.5-0.43-0.82-0.11-0.99c0.16-0.08,0.39-0.13,0.68-0.13c0.44,0.18,0.93,0.38,1.48,0.61
							c0.43,0.18,0.81,0.36,1.25,0.58c1.7,0.88,3.68,2.09,5.94,4.45c0.57,0.62,1.11,1.22,1.7,2.01c0.29,0.38,0.56,0.76,0.83,1.17
							c0.29,0.45,0.56,0.91,0.83,1.37c0.51,0.87,1.05,2.06,1.47,3.14C962.79,692.18,963.15,693.48,963.4,694.73z M976.87,765.05
							l0.1-1.03l0.02-1.04l0.01-0.58l-0.05-0.59l-0.1-1.21c-0.12-0.81-0.24-1.65-0.42-2.49c-0.22-0.83-0.38-1.72-0.7-2.57
							c-0.58-1.1-1.26-2.13-1.94-3.2c-0.44-0.64-0.95-1.28-1.52-1.88c-0.61-0.57-1.24-1.15-1.96-1.64
							c-2.16-2.62-4.69-5.02-7.57-7.01c-1.44-1.02-2.98-1.85-4.59-2.61c-1.64-0.68-3.39-1.32-5.23-1.6
							c1.86,0.62,3.55,1.57,5.09,2.53c1.5,1.03,2.95,2.08,4.34,3.32c2.8,2.4,5.4,5.15,7.99,8.22c-3.51-3.76-7.63-6.97-11.86-9.13
							c-2.03-1.04-4.29-1.87-6.72-2.22c-2.42-0.35-5.01-0.17-7.43,0.72c-2.42,0.89-4.59,2.47-6.46,4.46
							c-0.96,0.98-1.84,2.12-2.75,2.89c-0.94,0.8-1.94,1.44-2.96,1.86c-2.05,0.87-4.11,0.85-6.04,0.32
							c-1.94-0.53-3.8-1.59-5.51-2.91c-2.2-1.34-4.27-3.14-6.05-5.17c-0.94-1.07-1.5-1.87-2.12-2.84c-0.59-0.94-1.11-1.91-1.54-2.92
							c-0.64-1.41-1.17-2.86-1.44-4.38c-0.28-1.52-0.27-3.1,0.14-4.6c-0.98,1.58-1.43,3.46-1.41,5.38c0.02,1.92,0.45,3.89,1.21,5.81
							c0.38,0.96,0.84,1.92,1.38,2.87c0.27,0.47,0.56,0.94,0.86,1.4c0.31,0.47,0.67,0.98,1.05,1.45c1.49,1.95,3.27,3.72,5.25,5.24
							c2,1.5,4.23,2.74,6.69,3.4c2.44,0.67,5.17,0.68,7.73-0.35c1.27-0.51,2.49-1.25,3.56-2.19c1.08-0.92,2.04-2.07,2.83-3.08
							c1.54-1.99,3.4-3.63,5.51-4.69c2.11-1.06,4.46-1.49,6.71-1.33c2.25,0.15,4.37,0.82,6.23,1.74l1.36,0.73l1.43,0.89
							c0.94,0.64,1.88,1.29,2.75,2.05c1.76,1.48,3.4,3.11,4.81,4.89c2.81,3.54,4.97,7.6,5.64,11.22c0.12,0.43,0.16,0.92,0.18,1.26
							c0.03,0.31,0.04,0.68,0.03,1.03c0,0.35-0.02,0.7-0.08,1.04c-0.04,0.34-0.09,0.68-0.18,1c-0.08,0.33-0.16,0.65-0.31,0.95
							c-0.12,0.31-0.21,0.62-0.39,0.9c-0.29,0.58-0.71,1.08-1.09,1.56l-0.17,0.25l-0.23,0.4l-0.47,0.84
							c-0.32,0.6-0.63,1.19-0.94,1.88c-0.6,1.37-1.23,2.91-1.63,5.25c-0.05,0.27-0.09,0.61-0.12,0.94
							c-0.03,0.34-0.06,0.66-0.08,1.02c-0.01,0.8-0.01,1.54,0.12,2.51c0.23,1.82,0.93,4.2,2.5,6.39c1.54,2.2,3.77,3.8,5.58,4.62
							c1.84,0.86,3.37,1.19,4.67,1.41c2.57,0.37,4.32,0.25,5.91,0.13c1.57-0.14,2.92-0.37,4.18-0.62c2.51-0.51,4.7-1.14,6.81-1.81
							c2.1-0.68,4.1-1.41,6.06-2.19l1.46-0.6l1.52-0.65c1.45-0.65,2.87-1.36,4.3-2.08c1.2-1.04,2.44-2.04,3.63-3.12l1.66-1.57
							c0.56-0.56,1.12-1.15,1.67-1.74c2.13-2.4,4.15-4.95,5.67-7.76c-1.74,2.73-3.92,5.14-6.16,7.36c-0.57,0.55-1.15,1.09-1.73,1.61
							l-1.71,1.43c-1.22,0.99-2.46,1.89-3.66,2.82c-1.41,0.64-2.82,1.23-4.23,1.79c-0.19,0.08-0.33,0.13-0.44,0.16l-0.37,0.13
							l-0.74,0.25l-1.48,0.49c-1.98,0.65-3.99,1.25-6.07,1.8c-2.09,0.55-4.24,1.06-6.64,1.45c-1.21,0.19-2.46,0.36-3.91,0.45
							c-1.46,0.07-3.02,0.13-5.2-0.22c-1.1-0.2-2.33-0.46-3.85-1.17c-1.49-0.68-3.27-1.92-4.56-3.68c-1.31-1.75-1.94-3.74-2.13-5.29
							c-0.21-1.61-0.07-2.77,0.1-3.83c0.38-2.02,0.98-3.4,1.58-4.63c0.3-0.62,0.61-1.17,0.92-1.71l0.48-0.77l0.23-0.37l0.19-0.26
							c0.4-0.46,0.77-0.96,1.15-1.48c0.31-0.55,0.66-1.11,0.87-1.74c0.29-0.61,0.42-1.26,0.6-1.93
							C976.73,766.47,976.88,765.76,976.87,765.05z M978.51,770.2c-0.2,0.62-0.39,1.26-0.66,1.84c-0.3,0.58-0.56,1.16-0.89,1.7
							c-0.75,1.37-1.56,3.03-2.1,5.01c-0.26,1.03-0.49,2.18-0.39,3.71c0.08,0.79,0.22,1.64,0.65,2.57c0.4,0.91,1.06,1.84,1.85,2.49
							c1.61,1.35,3.24,1.71,4.45,1.88c1.25,0.15,2.29,0.1,3.25,0.01c1.91-0.21,3.55-0.62,5.12-1.09c2.75-0.73,5.33-1.67,7.85-2.69
							c2.58-1.07,4.76-2.02,7.86-3.64c0.17-0.1,0.37-0.17,0.52-0.3l0.45-0.4l0.91-0.81c0.61-0.53,1.2-1.1,1.76-1.66
							c0.55-0.53,1.1-1.12,1.64-1.72c0.55-0.59,1.05-1.21,1.54-1.83c1.97-2.49,3.59-5.2,4.49-8.08c0.92-2.85,1.12-5.87,0.48-8.62
							c-0.3-1.38-0.78-2.68-1.4-3.89c-0.61-1.21-1.35-2.32-2.16-3.32c-1.62-2.02-3.5-3.64-5.37-4.91c-0.93-0.63-1.87-1.21-2.72-1.64
							c-0.85-0.44-1.68-0.81-2.49-1.14c0.96,0.64,1.9,1.29,2.87,2.01c0.99,0.74,1.97,1.55,2.92,2.4c1.88,1.72,3.66,3.65,4.98,5.92
							c1.35,2.24,2.19,4.83,2.28,7.49c0.1,2.66-0.52,5.34-1.62,7.83c-1.1,2.49-2.67,4.82-4.46,7c-0.91,1.11-1.83,2.09-2.86,3.13
							l-1.55,1.5l-0.19,0.19l-0.23,0.14l-0.47,0.27l-0.94,0.53l-1.85,1l-1.65,0.85c-1.1,0.56-2.23,1.1-3.37,1.62
							c-2.29,1.03-4.65,1.99-7.22,2.77c2.41-0.64,4.17-1.29,5.5-1.78c1.32-0.5,2.19-0.86,2.68-1.07c0.97-0.43,0.4-0.21-1.44,0.5
							c-0.92,0.35-2.17,0.81-3.75,1.33c-1.59,0.51-3.48,1.11-5.9,1.56c-1.22,0.21-2.56,0.41-4.28,0.35
							c-0.87-0.04-1.85-0.14-3.04-0.56c-0.59-0.22-1.24-0.51-1.89-0.99c-0.64-0.46-1.27-1.1-1.74-1.83
							c-0.95-1.49-1.16-3.05-1.14-4.22c0.03-1.2,0.24-2.17,0.49-3.07c0.25-0.91,0.57-1.7,0.9-2.49c0.17-0.38,0.34-0.78,0.53-1.14
							c0.18-0.37,0.38-0.77,0.53-1.04c0.22-0.39,0.41-0.8,0.61-1.22c0.01-0.23,0.15-0.55,0.27-0.97
							C978.22,771.26,978.36,770.76,978.51,770.2z"/>
						<path class="st2" d="M902.54,737.19c-0.3-2.16-0.37-4.29,0.09-6.31c0.21-1.01,0.52-1.99,0.96-2.9
							c0.42-0.92,0.95-1.78,1.6-2.55c1.24-1.57,2.91-2.74,4.63-3.57c1.74-0.82,3.56-1.27,5.29-1.49c-1.61-0.28-3.32-0.41-5.09-0.19
							c-1.77,0.21-3.67,0.72-5.49,1.86c-2.22,1.67-3.84,4.2-4.5,7.06c-0.69,2.86-0.47,5.98,0.35,9.03c0.82,3.06,2.25,6.06,4.11,8.87
							c0.46,0.71,0.96,1.4,1.46,2.08c0.48,0.64,0.97,1.27,1.47,1.88c1.01,1.22,2.08,2.4,3.22,3.53c3.3,3.21,7.38,6.16,13.03,7.5
							c2.81,0.65,6.08,0.78,9.42-0.03c1.66-0.42,3.3-1.05,4.83-1.88c1.5-0.85,2.95-1.85,4.16-2.97c1.25-1.11,2.31-2.34,3.25-3.54
							l0.44-0.55l0.22-0.27c0.08-0.11,0.13-0.16,0.17-0.19l0.52-0.48c0.69-0.63,1.47-1.1,2.26-1.43l0.61-0.21
							c0.19-0.08,0.43-0.07,0.63-0.13c0.39-0.12,0.83-0.11,1.23-0.14c0.83,0.03,1.61,0.17,2.32,0.43c0.71,0.27,1.36,0.59,1.93,0.99
							l0.55,0.36c0.24,0.15,0.47,0.29,0.71,0.43c0.5,0.36,1.02,0.67,1.52,1.07c2.02,1.54,4.04,3.46,5.61,5.57
							c0.38,0.54,0.8,1.04,1.11,1.59c0.17,0.27,0.36,0.53,0.51,0.79l0.44,0.8c0.33,0.52,0.49,1.05,0.76,1.54
							c0.08,0.25,0.17,0.49,0.27,0.73l0.15,0.36l0.08,0.34c0.06,0.22,0.13,0.44,0.19,0.65l0.04,0.29c0.02,0.1,0,0.09,0.01,0.14
							c0.02,0.14,0.01,0.41,0,0.6c-0.02,0.21-0.04,0.41-0.1,0.61c-0.01,0.1-0.05,0.2-0.1,0.29c-0.05,0.09-0.05,0.19-0.08,0.28
							c-0.18,0.16-0.42,0.41-0.55,0.71l-0.15,0.32l-0.27,0.58c-0.17,0.39-0.34,0.77-0.51,1.21c-0.32,0.83-0.62,1.73-0.87,2.68
							c0.4-0.99,0.81-1.85,1.21-2.63c0.2-0.41,0.4-0.75,0.6-1.11l0.3-0.53l0.18-0.28c0.91-0.69,1.5-1.96,1.45-3.37
							c-0.15-1.11-0.55-2.47-1.17-3.88c-0.66-1.41-1.52-2.84-2.52-4.24c-1.02-1.38-2.2-2.68-3.44-3.9
							c-1.26-1.19-2.61-2.23-3.95-3.12l-1.69-1.05c-0.48-0.27-0.99-0.55-1.54-0.74c-1.09-0.42-2.32-0.7-3.59-0.65
							c-0.63,0.04-1.27,0.12-1.89,0.32c-0.33,0.06-0.63,0.19-0.93,0.32c-0.31,0.12-0.62,0.26-0.89,0.44
							c-0.6,0.32-1.12,0.74-1.66,1.19c-0.27,0.22-0.49,0.49-0.74,0.74l-0.37,0.39c-0.14,0.16-0.35,0.44-0.52,0.65l-0.67,0.84
							c-0.28,0.35-0.56,0.69-0.86,1.02c-0.63,0.67-1.25,1.32-1.97,1.93c-1.41,1.22-3.03,2.31-4.8,3.1
							c-3.56,1.6-7.46,1.86-10.73,1.26c-3.3-0.61-6.12-1.91-8.55-3.48c-2.44-1.57-4.52-3.44-6.33-5.47
							c-0.9-1.03-1.74-2.07-2.51-3.18c-0.79-1.13-1.54-2.32-2.16-3.53C903.91,742.13,903.02,739.65,902.54,737.19z"/>
						<path class="st2" d="M1031.55,755.22c-1.31-5.66-4.26-10.81-8.03-15.21c-1.87-2.19-4.03-4.27-6.11-6.08
							c-1.16-1.01-1.75-1.47-2.51-2.1c-0.71-0.57-1.41-1.13-2.11-1.69c0.53,0.61,1.11,1.25,1.72,1.92c0.31,0.34,0.63,0.68,0.95,1.03
							l0.51,0.54l0.71,0.73c0.92,0.96,1.95,2.06,2.91,3.15c0.97,1.1,1.89,2.25,2.77,3.43c3.53,4.71,6,10.12,6.8,15.24
							c1.42,7.18-0.14,14.71-3.85,21.15c-1.88,3.21-4.19,6.25-6.77,8.99c-0.6,0.62-1.18,1.21-1.9,1.92
							c-0.69,0.66-1.39,1.28-2.09,1.92l-1.05,0.95l-0.53,0.47c-0.18,0.15-0.41,0.24-0.61,0.36l-2.49,1.33l2.61-1.16
							c0.21-0.11,0.45-0.18,0.64-0.32l0.56-0.44l1.12-0.88c0.75-0.6,1.51-1.17,2.25-1.8l2.07-1.82c2.84-2.63,5.44-5.65,7.61-8.94
							c2.13-3.32,3.73-6.97,4.59-10.83C1032.19,763.25,1032.29,759.18,1031.55,755.22z"/>
						<path class="st2" d="M964.95,773.48c-0.59,1.5-1.23,3.27-1.61,6c-0.16,1.48-0.28,3.03,0.02,5.27c0.12,1,0.43,2.33,0.83,3.54
							c0.24,0.67,0.51,1.34,0.81,1.99c0.3,0.65,0.71,1.36,1.11,2.01c0.95,1.5,2.19,2.92,3.5,4.04c1.3,1.13,2.69,2,3.94,2.62
							c2.54,1.26,4.62,1.71,6.32,1.98c3.34,0.47,5.47,0.26,7.36,0.08c1.88-0.21,3.38-0.52,4.82-0.85c1.42-0.33,2.71-0.7,3.95-1.08
							c2.46-0.77,4.7-1.62,6.86-2.52c1.08-0.45,2.14-0.92,3.18-1.4l1.56-0.74l1.02-0.5l1.26-0.64l-1.38,0.58l-0.65,0.26l-0.43,0.15
							l-1.74,0.59c-1.16,0.38-2.34,0.74-3.53,1.09c-2.4,0.69-4.85,1.34-7.57,1.89c-1.36,0.28-2.79,0.54-4.37,0.75
							c-1.61,0.21-3.31,0.4-5.56,0.4c-1.1,0-2.4-0.05-3.98-0.29c-1.57-0.26-3.5-0.65-5.92-1.85c-1.2-0.61-2.5-1.43-3.73-2.56
							c-1.22-1.09-2.38-2.52-3.18-3.97c-0.44-0.75-0.75-1.46-1.03-2.19c-0.3-0.76-0.48-1.41-0.64-2.08c-0.08-0.33-0.16-0.7-0.2-0.99
							l-0.12-0.89l-0.08-0.89l-0.02-0.76c-0.32,0.03-0.62-0.29-0.88-0.93c-0.13-0.33-0.23-0.63-0.31-1.05
							c-0.08-0.38-0.15-0.92-0.19-1.33C964.22,777.29,964.49,775.26,964.95,773.48z"/>
					</g>
				</g>
			</g>
		</g>
	</g>
</g>
<g>
	<path class="st0" d="M934.87,798"/>
	<g>
		<path class="st3" d="M934.87,798"/>
	</g>
</g>
</svg>
