<svg id="Layer_1" data-name="Layer 1" xmlns="http://www.w3.org/2000/svg" viewBox="0 0 730 506.87"><defs><style>.cls-1{fill:#d00010;stroke:#000;stroke-miterlimit:10;}</style></defs><title>blood</title><path class="cls-1" d="M478.86,430.52c110.27-49.32,30,5.08,125.48-114.38S664.76,404,713.46,400c88.48-7.26,87.3,63.54,87.3,63.54C841.47,541.39,847,601.81,748.93,611c.46,67.3-54.59,65.89-139.13,28C548.91,718,506.64,697,478.86,598.28,409.15,553.69,419.27,496.13,478.86,430.52Z" transform="translate(-283.5 -278.5)"/><path class="cls-1" d="M784.68,408.93" transform="translate(-283.5 -278.5)"/><path class="cls-1" d="M338.84,719.89c41.79,11,77.26-40.61,46.12-32.09s-11-27.06-20.23-34.68c-24.55-20.34-24.84,35.58-44.1,26.35C278.49,659.25,287,699.56,287,699.56c.91,6.83-9.6,35.93,4.05,17.62S313.29,739.88,338.84,719.89Z" transform="translate(-283.5 -278.5)"/><path class="cls-1" d="M291.08,576.86" transform="translate(-283.5 -278.5)"/><path class="cls-1" d="M940.33,693.78c34.13-36.56,65.47,2.55,43.65,22.88s55.56,29,19.09,61c0,0-32.73,17.79-21.82-2.55s-30-53.37-43.65-28-60-22.87-19.09-33S940.33,693.78,940.33,693.78Z" transform="translate(-283.5 -278.5)"/><path class="cls-1" d="M934.87,798" transform="translate(-283.5 -278.5)"/></svg>